<?xml version="1.0" encoding="UTF-8" standalone="no"?>
<!DOCTYPE svg PUBLIC "-//W3C//DTD SVG 1.1//EN"
 "http://www.w3.org/Graphics/SVG/1.1/DTD/svg11.dtd">
<!-- Generated by graphviz version 2.43.0 (0)
 -->
<!-- Pages: 1 -->
<svg width="427pt" height="188pt"
 viewBox="0.00 0.00 426.55 188.00" xmlns="http://www.w3.org/2000/svg" xmlns:xlink="http://www.w3.org/1999/xlink">
<g id="graph0" class="graph" transform="scale(1 1) rotate(0) translate(4 184)">
<polygon fill="white" stroke="transparent" points="-4,4 -4,-184 422.55,-184 422.55,4 -4,4"/>
<!-- class -->
<g id="node1" class="node">
<title>class</title>
<ellipse fill="none" stroke="black" cx="34" cy="-90" rx="34" ry="18"/>
<text text-anchor="middle" x="34" y="-86.3" font-family="Times,serif" font-size="14.00">class</text>
</g>
<!-- sg -->
<g id="node2" class="node">
<title>sg</title>
<ellipse fill="none" stroke="black" cx="34" cy="-18" rx="27" ry="18"/>
<text text-anchor="middle" x="34" y="-14.3" font-family="Times,serif" font-size="14.00">sg</text>
</g>
<!-- class&#45;&gt;sg -->
<g id="edge1" class="edge">
<title>class&#45;&gt;sg</title>
<path fill="none" stroke="black" d="M34,-71.7C34,-63.98 34,-54.71 34,-46.11"/>
<polygon fill="black" stroke="black" points="37.5,-46.1 34,-36.1 30.5,-46.1 37.5,-46.1"/>
</g>
<!-- al -->
<g id="node3" class="node">
<title>al</title>
<ellipse fill="none" stroke="black" cx="34" cy="-162" rx="27" ry="18"/>
<text text-anchor="middle" x="34" y="-158.3" font-family="Times,serif" font-size="14.00">al</text>
</g>
<!-- al&#45;&gt;class -->
<g id="edge2" class="edge">
<title>al&#45;&gt;class</title>
<path fill="none" stroke="black" d="M34,-143.7C34,-135.98 34,-126.71 34,-118.11"/>
<polygon fill="black" stroke="black" points="37.5,-118.1 34,-108.1 30.5,-118.1 37.5,-118.1"/>
</g>
<!-- dm -->
<g id="node4" class="node">
<title>dm</title>
<ellipse fill="none" stroke="black" cx="113" cy="-162" rx="27" ry="18"/>
<text text-anchor="middle" x="113" y="-158.3" font-family="Times,serif" font-size="14.00">dm</text>
</g>
<!-- su -->
<g id="node5" class="node">
<title>su</title>
<ellipse fill="none" stroke="black" cx="113" cy="-90" rx="27" ry="18"/>
<text text-anchor="middle" x="113" y="-86.3" font-family="Times,serif" font-size="14.00">su</text>
</g>
<!-- dm&#45;&gt;su -->
<g id="edge3" class="edge">
<title>dm&#45;&gt;su</title>
<path fill="none" stroke="black" d="M113,-143.7C113,-135.98 113,-126.71 113,-118.11"/>
<polygon fill="black" stroke="black" points="116.5,-118.1 113,-108.1 109.5,-118.1 116.5,-118.1"/>
</g>
<!-- pcc -->
<g id="node6" class="node">
<title>pcc</title>
<ellipse fill="none" stroke="black" cx="185" cy="-162" rx="27" ry="18"/>
<text text-anchor="middle" x="185" y="-158.3" font-family="Times,serif" font-size="14.00">pcc</text>
</g>
<!-- pc -->
<g id="node7" class="node">
<title>pc</title>
<ellipse fill="none" stroke="black" cx="185" cy="-90" rx="27" ry="18"/>
<text text-anchor="middle" x="185" y="-86.3" font-family="Times,serif" font-size="14.00">pc</text>
</g>
<!-- pcc&#45;&gt;pc -->
<g id="edge4" class="edge">
<title>pcc&#45;&gt;pc</title>
<path fill="none" stroke="black" d="M185,-143.7C185,-135.98 185,-126.71 185,-118.11"/>
<polygon fill="black" stroke="black" points="188.5,-118.1 185,-108.1 181.5,-118.1 188.5,-118.1"/>
</g>
<!-- bu -->
<g id="node8" class="node">
<title>bu</title>
<ellipse fill="none" stroke="black" cx="257" cy="-162" rx="27" ry="18"/>
<text text-anchor="middle" x="257" y="-158.3" font-family="Times,serif" font-size="14.00">bu</text>
</g>
<!-- sc -->
<g id="node9" class="node">
<title>sc</title>
<ellipse fill="none" stroke="black" cx="257" cy="-90" rx="27" ry="18"/>
<text text-anchor="middle" x="257" y="-86.3" font-family="Times,serif" font-size="14.00">sc</text>
</g>
<!-- bu&#45;&gt;sc -->
<g id="edge5" class="edge">
<title>bu&#45;&gt;sc</title>
<path fill="none" stroke="black" d="M257,-143.7C257,-135.98 257,-126.71 257,-118.11"/>
<polygon fill="black" stroke="black" points="260.5,-118.1 257,-108.1 253.5,-118.1 260.5,-118.1"/>
</g>
<!-- sod -->
<g id="node10" class="node">
<title>sod</title>
<ellipse fill="none" stroke="black" cx="257" cy="-18" rx="27" ry="18"/>
<text text-anchor="middle" x="257" y="-14.3" font-family="Times,serif" font-size="14.00">sod</text>
</g>
<!-- sc&#45;&gt;sod -->
<g id="edge6" class="edge">
<title>sc&#45;&gt;sod</title>
<path fill="none" stroke="black" d="M257,-71.7C257,-63.98 257,-54.71 257,-46.11"/>
<polygon fill="black" stroke="black" points="260.5,-46.1 257,-36.1 253.5,-46.1 260.5,-46.1"/>
</g>
<!-- hemo -->
<g id="node11" class="node">
<title>hemo</title>
<ellipse fill="none" stroke="black" cx="363" cy="-162" rx="36.5" ry="18"/>
<text text-anchor="middle" x="363" y="-158.3" font-family="Times,serif" font-size="14.00">hemo</text>
</g>
<!-- pcv -->
<g id="node12" class="node">
<title>pcv</title>
<ellipse fill="none" stroke="black" cx="346" cy="-18" rx="27" ry="18"/>
<text text-anchor="middle" x="346" y="-14.3" font-family="Times,serif" font-size="14.00">pcv</text>
</g>
<!-- hemo&#45;&gt;pcv -->
<g id="edge7" class="edge">
<title>hemo&#45;&gt;pcv</title>
<path fill="none" stroke="black" d="M357.02,-144.06C353.68,-133.77 349.84,-120.29 348,-108 344.92,-87.5 344.52,-64.04 344.83,-46.36"/>
<polygon fill="black" stroke="black" points="348.34,-46.26 345.1,-36.17 341.34,-46.08 348.34,-46.26"/>
</g>
<!-- rbcc -->
<g id="node13" class="node">
<title>rbcc</title>
<ellipse fill="none" stroke="black" cx="388" cy="-90" rx="30.59" ry="18"/>
<text text-anchor="middle" x="388" y="-86.3" font-family="Times,serif" font-size="14.00">rbcc</text>
</g>
<!-- hemo&#45;&gt;rbcc -->
<g id="edge8" class="edge">
<title>hemo&#45;&gt;rbcc</title>
<path fill="none" stroke="black" d="M369.05,-144.05C371.9,-136.06 375.38,-126.33 378.57,-117.4"/>
<polygon fill="black" stroke="black" points="381.94,-118.38 382,-107.79 375.35,-116.03 381.94,-118.38"/>
</g>
<!-- rbcc&#45;&gt;pcv -->
<g id="edge9" class="edge">
<title>rbcc&#45;&gt;pcv</title>
<path fill="none" stroke="black" d="M378.26,-72.77C373.11,-64.19 366.69,-53.49 360.94,-43.9"/>
<polygon fill="black" stroke="black" points="363.84,-41.92 355.69,-35.15 357.84,-45.52 363.84,-41.92"/>
</g>
</g>
</svg>
