<?xml version="1.0" encoding="UTF-8" standalone="no"?>
<!DOCTYPE svg PUBLIC "-//W3C//DTD SVG 1.1//EN"
 "http://www.w3.org/Graphics/SVG/1.1/DTD/svg11.dtd">
<!-- Generated by graphviz version 2.43.0 (0)
 -->
<!-- Pages: 1 -->
<svg width="154pt" height="116pt"
 viewBox="0.00 0.00 153.70 116.00" xmlns="http://www.w3.org/2000/svg" xmlns:xlink="http://www.w3.org/1999/xlink">
<g id="graph0" class="graph" transform="scale(1 1) rotate(0) translate(4 112)">
<polygon fill="white" stroke="transparent" points="-4,4 -4,-112 149.7,-112 149.7,4 -4,4"/>
<!-- age -->
<g id="node1" class="node">
<title>age</title>
<ellipse fill="none" stroke="black" cx="31.2" cy="-90" rx="27.5" ry="18"/>
<text text-anchor="middle" x="31.2" y="-86.3" font-family="Times,serif" font-size="14.00">age</text>
</g>
<!-- pres -->
<g id="node2" class="node">
<title>pres</title>
<ellipse fill="none" stroke="black" cx="31.2" cy="-18" rx="31.4" ry="18"/>
<text text-anchor="middle" x="31.2" y="-14.3" font-family="Times,serif" font-size="14.00">pres</text>
</g>
<!-- age&#45;&gt;pres -->
<g id="edge1" class="edge">
<title>age&#45;&gt;pres</title>
<path fill="none" stroke="black" d="M31.2,-71.7C31.2,-63.98 31.2,-54.71 31.2,-46.11"/>
<polygon fill="black" stroke="black" points="34.7,-46.1 31.2,-36.1 27.7,-46.1 34.7,-46.1"/>
</g>
<!-- mass -->
<g id="node3" class="node">
<title>mass</title>
<ellipse fill="none" stroke="black" cx="111.2" cy="-90" rx="34.5" ry="18"/>
<text text-anchor="middle" x="111.2" y="-86.3" font-family="Times,serif" font-size="14.00">mass</text>
</g>
<!-- skin -->
<g id="node4" class="node">
<title>skin</title>
<ellipse fill="none" stroke="black" cx="111.2" cy="-18" rx="30" ry="18"/>
<text text-anchor="middle" x="111.2" y="-14.3" font-family="Times,serif" font-size="14.00">skin</text>
</g>
<!-- mass&#45;&gt;skin -->
<g id="edge2" class="edge">
<title>mass&#45;&gt;skin</title>
<path fill="none" stroke="black" d="M111.2,-71.7C111.2,-63.98 111.2,-54.71 111.2,-46.11"/>
<polygon fill="black" stroke="black" points="114.7,-46.1 111.2,-36.1 107.7,-46.1 114.7,-46.1"/>
</g>
</g>
</svg>
