<?xml version="1.0" encoding="UTF-8" standalone="no"?>
<!DOCTYPE svg PUBLIC "-//W3C//DTD SVG 1.1//EN"
 "http://www.w3.org/Graphics/SVG/1.1/DTD/svg11.dtd">
<!-- Generated by graphviz version 2.43.0 (0)
 -->
<!-- Pages: 1 -->
<svg width="402pt" height="188pt"
 viewBox="0.00 0.00 402.50 188.00" xmlns="http://www.w3.org/2000/svg" xmlns:xlink="http://www.w3.org/1999/xlink">
<g id="graph0" class="graph" transform="scale(1 1) rotate(0) translate(4 184)">
<polygon fill="white" stroke="transparent" points="-4,4 -4,-184 398.5,-184 398.5,4 -4,4"/>
<!-- LBDLYMNO -->
<g id="node1" class="node">
<title>LBDLYMNO</title>
<ellipse fill="none" stroke="black" cx="66.5" cy="-162" rx="66.5" ry="18"/>
<text text-anchor="middle" x="66.5" y="-158.3" font-family="Times,serif" font-size="14.00">LBDLYMNO</text>
</g>
<!-- LBXWBCSI -->
<g id="node2" class="node">
<title>LBXWBCSI</title>
<ellipse fill="none" stroke="black" cx="66.5" cy="-90" rx="62.5" ry="18"/>
<text text-anchor="middle" x="66.5" y="-86.3" font-family="Times,serif" font-size="14.00">LBXWBCSI</text>
</g>
<!-- LBDLYMNO&#45;&gt;LBXWBCSI -->
<g id="edge1" class="edge">
<title>LBDLYMNO&#45;&gt;LBXWBCSI</title>
<path fill="none" stroke="black" d="M66.5,-143.7C66.5,-135.98 66.5,-126.71 66.5,-118.11"/>
<polygon fill="black" stroke="black" points="70,-118.1 66.5,-108.1 63,-118.1 70,-118.1"/>
</g>
<!-- LBDBANO -->
<g id="node3" class="node">
<title>LBDBANO</title>
<ellipse fill="none" stroke="black" cx="66.5" cy="-18" rx="59.29" ry="18"/>
<text text-anchor="middle" x="66.5" y="-14.3" font-family="Times,serif" font-size="14.00">LBDBANO</text>
</g>
<!-- LBXWBCSI&#45;&gt;LBDBANO -->
<g id="edge2" class="edge">
<title>LBXWBCSI&#45;&gt;LBDBANO</title>
<path fill="none" stroke="black" d="M66.5,-71.7C66.5,-63.98 66.5,-54.71 66.5,-46.11"/>
<polygon fill="black" stroke="black" points="70,-46.1 66.5,-36.1 63,-46.1 70,-46.1"/>
</g>
<!-- LBXLYPCT -->
<g id="node4" class="node">
<title>LBXLYPCT</title>
<ellipse fill="none" stroke="black" cx="210.5" cy="-162" rx="60" ry="18"/>
<text text-anchor="middle" x="210.5" y="-158.3" font-family="Times,serif" font-size="14.00">LBXLYPCT</text>
</g>
<!-- LBXNEPCT -->
<g id="node5" class="node">
<title>LBXNEPCT</title>
<ellipse fill="none" stroke="black" cx="210.5" cy="-90" rx="63.89" ry="18"/>
<text text-anchor="middle" x="210.5" y="-86.3" font-family="Times,serif" font-size="14.00">LBXNEPCT</text>
</g>
<!-- LBXLYPCT&#45;&gt;LBXNEPCT -->
<g id="edge3" class="edge">
<title>LBXLYPCT&#45;&gt;LBXNEPCT</title>
<path fill="none" stroke="black" d="M210.5,-143.7C210.5,-135.98 210.5,-126.71 210.5,-118.11"/>
<polygon fill="black" stroke="black" points="214,-118.1 210.5,-108.1 207,-118.1 214,-118.1"/>
</g>
<!-- LBDNENO -->
<g id="node6" class="node">
<title>LBDNENO</title>
<ellipse fill="none" stroke="black" cx="210.5" cy="-18" rx="60.5" ry="18"/>
<text text-anchor="middle" x="210.5" y="-14.3" font-family="Times,serif" font-size="14.00">LBDNENO</text>
</g>
<!-- LBXNEPCT&#45;&gt;LBDNENO -->
<g id="edge4" class="edge">
<title>LBXNEPCT&#45;&gt;LBDNENO</title>
<path fill="none" stroke="black" d="M210.5,-71.7C210.5,-63.98 210.5,-54.71 210.5,-46.11"/>
<polygon fill="black" stroke="black" points="214,-46.1 210.5,-36.1 207,-46.1 214,-46.1"/>
</g>
<!-- LBXHGB -->
<g id="node7" class="node">
<title>LBXHGB</title>
<ellipse fill="none" stroke="black" cx="342.5" cy="-162" rx="52" ry="18"/>
<text text-anchor="middle" x="342.5" y="-158.3" font-family="Times,serif" font-size="14.00">LBXHGB</text>
</g>
<!-- LBXHCT -->
<g id="node8" class="node">
<title>LBXHCT</title>
<ellipse fill="none" stroke="black" cx="342.5" cy="-90" rx="50.09" ry="18"/>
<text text-anchor="middle" x="342.5" y="-86.3" font-family="Times,serif" font-size="14.00">LBXHCT</text>
</g>
<!-- LBXHGB&#45;&gt;LBXHCT -->
<g id="edge5" class="edge">
<title>LBXHGB&#45;&gt;LBXHCT</title>
<path fill="none" stroke="black" d="M342.5,-143.7C342.5,-135.98 342.5,-126.71 342.5,-118.11"/>
<polygon fill="black" stroke="black" points="346,-118.1 342.5,-108.1 339,-118.1 346,-118.1"/>
</g>
</g>
</svg>
