<?xml version="1.0" encoding="UTF-8" standalone="no"?>
<!DOCTYPE svg PUBLIC "-//W3C//DTD SVG 1.1//EN"
 "http://www.w3.org/Graphics/SVG/1.1/DTD/svg11.dtd">
<!-- Generated by graphviz version 2.43.0 (0)
 -->
<!-- Pages: 1 -->
<svg width="831pt" height="188pt"
 viewBox="0.00 0.00 830.50 188.00" xmlns="http://www.w3.org/2000/svg" xmlns:xlink="http://www.w3.org/1999/xlink">
<g id="graph0" class="graph" transform="scale(1 1) rotate(0) translate(4 184)">
<polygon fill="white" stroke="transparent" points="-4,4 -4,-184 826.5,-184 826.5,4 -4,4"/>
<!-- CL -->
<g id="node1" class="node">
<title>CL</title>
<ellipse fill="none" stroke="black" cx="27" cy="-162" rx="27" ry="18"/>
<text text-anchor="middle" x="27" y="-158.3" font-family="Times,serif" font-size="14.00">CL</text>
</g>
<!-- AG -->
<g id="node2" class="node">
<title>AG</title>
<ellipse fill="none" stroke="black" cx="71" cy="-90" rx="27" ry="18"/>
<text text-anchor="middle" x="71" y="-86.3" font-family="Times,serif" font-size="14.00">AG</text>
</g>
<!-- CL&#45;&gt;AG -->
<g id="edge1" class="edge">
<title>CL&#45;&gt;AG</title>
<path fill="none" stroke="black" d="M36.98,-145.12C42.5,-136.34 49.46,-125.26 55.65,-115.42"/>
<polygon fill="black" stroke="black" points="58.7,-117.15 61.05,-106.82 52.77,-113.43 58.7,-117.15"/>
</g>
<!-- CO2CP -->
<g id="node3" class="node">
<title>CO2CP</title>
<ellipse fill="none" stroke="black" cx="116" cy="-162" rx="44.39" ry="18"/>
<text text-anchor="middle" x="116" y="-158.3" font-family="Times,serif" font-size="14.00">CO2CP</text>
</g>
<!-- CO2CP&#45;&gt;AG -->
<g id="edge2" class="edge">
<title>CO2CP&#45;&gt;AG</title>
<path fill="none" stroke="black" d="M105.34,-144.41C99.82,-135.83 92.98,-125.19 86.86,-115.67"/>
<polygon fill="black" stroke="black" points="89.63,-113.51 81.28,-106.99 83.74,-117.29 89.63,-113.51"/>
</g>
<!-- ALB -->
<g id="node4" class="node">
<title>ALB</title>
<ellipse fill="none" stroke="black" cx="209" cy="-162" rx="30" ry="18"/>
<text text-anchor="middle" x="209" y="-158.3" font-family="Times,serif" font-size="14.00">ALB</text>
</g>
<!-- MONO# -->
<g id="node5" class="node">
<title>MONO#</title>
<ellipse fill="none" stroke="black" cx="209" cy="-90" rx="50.09" ry="18"/>
<text text-anchor="middle" x="209" y="-86.3" font-family="Times,serif" font-size="14.00">MONO#</text>
</g>
<!-- ALB&#45;&gt;MONO# -->
<g id="edge3" class="edge">
<title>ALB&#45;&gt;MONO#</title>
<path fill="none" stroke="black" d="M209,-143.7C209,-135.98 209,-126.71 209,-118.11"/>
<polygon fill="black" stroke="black" points="212.5,-118.1 209,-108.1 205.5,-118.1 212.5,-118.1"/>
</g>
<!-- BASO# -->
<g id="node6" class="node">
<title>BASO#</title>
<ellipse fill="none" stroke="black" cx="323" cy="-90" rx="45.5" ry="18"/>
<text text-anchor="middle" x="323" y="-86.3" font-family="Times,serif" font-size="14.00">BASO#</text>
</g>
<!-- BASO% -->
<g id="node7" class="node">
<title>BASO%</title>
<ellipse fill="none" stroke="black" cx="375" cy="-18" rx="46.29" ry="18"/>
<text text-anchor="middle" x="375" y="-14.3" font-family="Times,serif" font-size="14.00">BASO%</text>
</g>
<!-- BASO#&#45;&gt;BASO% -->
<g id="edge4" class="edge">
<title>BASO#&#45;&gt;BASO%</title>
<path fill="none" stroke="black" d="M335.32,-72.41C341.67,-63.87 349.54,-53.28 356.59,-43.79"/>
<polygon fill="black" stroke="black" points="359.62,-45.58 362.77,-35.47 354,-41.41 359.62,-45.58"/>
</g>
<!-- LYM% -->
<g id="node8" class="node">
<title>LYM%</title>
<ellipse fill="none" stroke="black" cx="427" cy="-90" rx="40.5" ry="18"/>
<text text-anchor="middle" x="427" y="-86.3" font-family="Times,serif" font-size="14.00">LYM%</text>
</g>
<!-- LYM%&#45;&gt;BASO% -->
<g id="edge5" class="edge">
<title>LYM%&#45;&gt;BASO%</title>
<path fill="none" stroke="black" d="M414.94,-72.77C408.53,-64.14 400.53,-53.37 393.37,-43.73"/>
<polygon fill="black" stroke="black" points="396.13,-41.58 387.36,-35.63 390.51,-45.75 396.13,-41.58"/>
</g>
<!-- CA125 -->
<g id="node9" class="node">
<title>CA125</title>
<ellipse fill="none" stroke="black" cx="529" cy="-162" rx="41.69" ry="18"/>
<text text-anchor="middle" x="529" y="-158.3" font-family="Times,serif" font-size="14.00">CA125</text>
</g>
<!-- CA72&#45;4 -->
<g id="node10" class="node">
<title>CA72&#45;4</title>
<ellipse fill="none" stroke="black" cx="529" cy="-90" rx="44.39" ry="18"/>
<text text-anchor="middle" x="529" y="-86.3" font-family="Times,serif" font-size="14.00">CA72&#45;4</text>
</g>
<!-- CA125&#45;&gt;CA72&#45;4 -->
<g id="edge6" class="edge">
<title>CA125&#45;&gt;CA72&#45;4</title>
<path fill="none" stroke="black" d="M529,-143.7C529,-135.98 529,-126.71 529,-118.11"/>
<polygon fill="black" stroke="black" points="532.5,-118.1 529,-108.1 525.5,-118.1 532.5,-118.1"/>
</g>
<!-- HCT -->
<g id="node11" class="node">
<title>HCT</title>
<ellipse fill="none" stroke="black" cx="624" cy="-162" rx="31.4" ry="18"/>
<text text-anchor="middle" x="624" y="-158.3" font-family="Times,serif" font-size="14.00">HCT</text>
</g>
<!-- HGB -->
<g id="node12" class="node">
<title>HGB</title>
<ellipse fill="none" stroke="black" cx="624" cy="-90" rx="32.5" ry="18"/>
<text text-anchor="middle" x="624" y="-86.3" font-family="Times,serif" font-size="14.00">HGB</text>
</g>
<!-- HCT&#45;&gt;HGB -->
<g id="edge7" class="edge">
<title>HCT&#45;&gt;HGB</title>
<path fill="none" stroke="black" d="M624,-143.7C624,-135.98 624,-126.71 624,-118.11"/>
<polygon fill="black" stroke="black" points="627.5,-118.1 624,-108.1 620.5,-118.1 627.5,-118.1"/>
</g>
<!-- MCH -->
<g id="node13" class="node">
<title>MCH</title>
<ellipse fill="none" stroke="black" cx="708" cy="-162" rx="34.5" ry="18"/>
<text text-anchor="middle" x="708" y="-158.3" font-family="Times,serif" font-size="14.00">MCH</text>
</g>
<!-- MCH&#45;&gt;HGB -->
<g id="edge8" class="edge">
<title>MCH&#45;&gt;HGB</title>
<path fill="none" stroke="black" d="M690.19,-146.15C678.22,-136.18 662.28,-122.9 649.05,-111.87"/>
<polygon fill="black" stroke="black" points="651.14,-109.05 641.21,-105.35 646.66,-114.44 651.14,-109.05"/>
</g>
<!-- RDW -->
<g id="node14" class="node">
<title>RDW</title>
<ellipse fill="none" stroke="black" cx="709" cy="-90" rx="34.5" ry="18"/>
<text text-anchor="middle" x="709" y="-86.3" font-family="Times,serif" font-size="14.00">RDW</text>
</g>
<!-- MCH&#45;&gt;RDW -->
<g id="edge9" class="edge">
<title>MCH&#45;&gt;RDW</title>
<path fill="none" stroke="black" d="M708.25,-143.7C708.36,-135.98 708.49,-126.71 708.61,-118.11"/>
<polygon fill="black" stroke="black" points="712.11,-118.15 708.76,-108.1 705.11,-118.05 712.11,-118.15"/>
</g>
<!-- LYM# -->
<g id="node15" class="node">
<title>LYM#</title>
<ellipse fill="none" stroke="black" cx="427" cy="-162" rx="39" ry="18"/>
<text text-anchor="middle" x="427" y="-158.3" font-family="Times,serif" font-size="14.00">LYM#</text>
</g>
<!-- LYM#&#45;&gt;LYM% -->
<g id="edge10" class="edge">
<title>LYM#&#45;&gt;LYM%</title>
<path fill="none" stroke="black" d="M427,-143.7C427,-135.98 427,-126.71 427,-118.11"/>
<polygon fill="black" stroke="black" points="430.5,-118.1 427,-108.1 423.5,-118.1 430.5,-118.1"/>
</g>
<!-- PLT -->
<g id="node16" class="node">
<title>PLT</title>
<ellipse fill="none" stroke="black" cx="790" cy="-90" rx="28.7" ry="18"/>
<text text-anchor="middle" x="790" y="-86.3" font-family="Times,serif" font-size="14.00">PLT</text>
</g>
<!-- MPV -->
<g id="node17" class="node">
<title>MPV</title>
<ellipse fill="none" stroke="black" cx="790" cy="-18" rx="32.5" ry="18"/>
<text text-anchor="middle" x="790" y="-14.3" font-family="Times,serif" font-size="14.00">MPV</text>
</g>
<!-- PLT&#45;&gt;MPV -->
<g id="edge11" class="edge">
<title>PLT&#45;&gt;MPV</title>
<path fill="none" stroke="black" d="M790,-71.7C790,-63.98 790,-54.71 790,-46.11"/>
<polygon fill="black" stroke="black" points="793.5,-46.1 790,-36.1 786.5,-46.1 793.5,-46.1"/>
</g>
<!-- PCT -->
<g id="node18" class="node">
<title>PCT</title>
<ellipse fill="none" stroke="black" cx="790" cy="-162" rx="30" ry="18"/>
<text text-anchor="middle" x="790" y="-158.3" font-family="Times,serif" font-size="14.00">PCT</text>
</g>
<!-- PCT&#45;&gt;PLT -->
<g id="edge12" class="edge">
<title>PCT&#45;&gt;PLT</title>
<path fill="none" stroke="black" d="M790,-143.7C790,-135.98 790,-126.71 790,-118.11"/>
<polygon fill="black" stroke="black" points="793.5,-118.1 790,-108.1 786.5,-118.1 793.5,-118.1"/>
</g>
</g>
</svg>
