<?xml version="1.0" encoding="UTF-8" standalone="no"?>
<!DOCTYPE svg PUBLIC "-//W3C//DTD SVG 1.1//EN"
 "http://www.w3.org/Graphics/SVG/1.1/DTD/svg11.dtd">
<!-- Generated by graphviz version 2.43.0 (0)
 -->
<!-- Pages: 1 -->
<svg width="2212pt" height="188pt"
 viewBox="0.00 0.00 2212.45 188.00" xmlns="http://www.w3.org/2000/svg" xmlns:xlink="http://www.w3.org/1999/xlink">
<g id="graph0" class="graph" transform="scale(1 1) rotate(0) translate(4 184)">
<polygon fill="white" stroke="transparent" points="-4,4 -4,-184 2208.45,-184 2208.45,4 -4,4"/>
<!-- PLAT -->
<g id="node1" class="node">
<title>PLAT</title>
<ellipse fill="none" stroke="black" cx="38.5" cy="-162" rx="34.5" ry="18"/>
<text text-anchor="middle" x="38.5" y="-158.3" font-family="Times,serif" font-size="14.00">PLAT</text>
</g>
<!-- CCN3 -->
<g id="node2" class="node">
<title>CCN3</title>
<ellipse fill="none" stroke="black" cx="38.5" cy="-90" rx="38.5" ry="18"/>
<text text-anchor="middle" x="38.5" y="-86.3" font-family="Times,serif" font-size="14.00">CCN3</text>
</g>
<!-- PLAT&#45;&gt;CCN3 -->
<g id="edge1" class="edge">
<title>PLAT&#45;&gt;CCN3</title>
<path fill="none" stroke="black" d="M38.5,-143.7C38.5,-135.98 38.5,-126.71 38.5,-118.11"/>
<polygon fill="black" stroke="black" points="42,-118.1 38.5,-108.1 35,-118.1 42,-118.1"/>
</g>
<!-- GPM6B -->
<g id="node3" class="node">
<title>GPM6B</title>
<ellipse fill="none" stroke="black" cx="138.5" cy="-162" rx="46.29" ry="18"/>
<text text-anchor="middle" x="138.5" y="-158.3" font-family="Times,serif" font-size="14.00">GPM6B</text>
</g>
<!-- NR4A3 -->
<g id="node4" class="node">
<title>NR4A3</title>
<ellipse fill="none" stroke="black" cx="138.5" cy="-90" rx="43.59" ry="18"/>
<text text-anchor="middle" x="138.5" y="-86.3" font-family="Times,serif" font-size="14.00">NR4A3</text>
</g>
<!-- GPM6B&#45;&gt;NR4A3 -->
<g id="edge2" class="edge">
<title>GPM6B&#45;&gt;NR4A3</title>
<path fill="none" stroke="black" d="M138.5,-143.7C138.5,-135.98 138.5,-126.71 138.5,-118.11"/>
<polygon fill="black" stroke="black" points="142,-118.1 138.5,-108.1 135,-118.1 142,-118.1"/>
</g>
<!-- MMP2 -->
<g id="node5" class="node">
<title>MMP2</title>
<ellipse fill="none" stroke="black" cx="244.5" cy="-162" rx="41.69" ry="18"/>
<text text-anchor="middle" x="244.5" y="-158.3" font-family="Times,serif" font-size="14.00">MMP2</text>
</g>
<!-- FHL1 -->
<g id="node6" class="node">
<title>FHL1</title>
<ellipse fill="none" stroke="black" cx="296.5" cy="-90" rx="36.5" ry="18"/>
<text text-anchor="middle" x="296.5" y="-86.3" font-family="Times,serif" font-size="14.00">FHL1</text>
</g>
<!-- MMP2&#45;&gt;FHL1 -->
<g id="edge3" class="edge">
<title>MMP2&#45;&gt;FHL1</title>
<path fill="none" stroke="black" d="M256.56,-144.76C263.05,-136.02 271.2,-125.05 278.44,-115.31"/>
<polygon fill="black" stroke="black" points="281.35,-117.27 284.5,-107.15 275.73,-113.09 281.35,-117.27"/>
</g>
<!-- CYFIP2 -->
<g id="node7" class="node">
<title>CYFIP2</title>
<ellipse fill="none" stroke="black" cx="349.5" cy="-162" rx="45.5" ry="18"/>
<text text-anchor="middle" x="349.5" y="-158.3" font-family="Times,serif" font-size="14.00">CYFIP2</text>
</g>
<!-- CYFIP2&#45;&gt;FHL1 -->
<g id="edge4" class="edge">
<title>CYFIP2&#45;&gt;FHL1</title>
<path fill="none" stroke="black" d="M336.94,-144.41C330.31,-135.66 322.05,-124.75 314.73,-115.08"/>
<polygon fill="black" stroke="black" points="317.43,-112.85 308.6,-106.99 311.85,-117.07 317.43,-112.85"/>
</g>
<!-- C1QTNF3 -->
<g id="node8" class="node">
<title>C1QTNF3</title>
<ellipse fill="none" stroke="black" cx="469.5" cy="-162" rx="56.59" ry="18"/>
<text text-anchor="middle" x="469.5" y="-158.3" font-family="Times,serif" font-size="14.00">C1QTNF3</text>
</g>
<!-- RAMP3 -->
<g id="node9" class="node">
<title>RAMP3</title>
<ellipse fill="none" stroke="black" cx="509.5" cy="-90" rx="45.5" ry="18"/>
<text text-anchor="middle" x="509.5" y="-86.3" font-family="Times,serif" font-size="14.00">RAMP3</text>
</g>
<!-- C1QTNF3&#45;&gt;RAMP3 -->
<g id="edge5" class="edge">
<title>C1QTNF3&#45;&gt;RAMP3</title>
<path fill="none" stroke="black" d="M479.18,-144.05C483.9,-135.8 489.67,-125.7 494.9,-116.54"/>
<polygon fill="black" stroke="black" points="497.98,-118.21 499.9,-107.79 491.9,-114.74 497.98,-118.21"/>
</g>
<!-- FLT4 -->
<g id="node10" class="node">
<title>FLT4</title>
<ellipse fill="none" stroke="black" cx="578.5" cy="-162" rx="34.5" ry="18"/>
<text text-anchor="middle" x="578.5" y="-158.3" font-family="Times,serif" font-size="14.00">FLT4</text>
</g>
<!-- FLT4&#45;&gt;RAMP3 -->
<g id="edge6" class="edge">
<title>FLT4&#45;&gt;RAMP3</title>
<path fill="none" stroke="black" d="M563.18,-145.46C554.11,-136.26 542.44,-124.42 532.3,-114.13"/>
<polygon fill="black" stroke="black" points="534.77,-111.64 525.25,-106.98 529.78,-116.56 534.77,-111.64"/>
</g>
<!-- CHRNE -->
<g id="node11" class="node">
<title>CHRNE</title>
<ellipse fill="none" stroke="black" cx="677.5" cy="-162" rx="47" ry="18"/>
<text text-anchor="middle" x="677.5" y="-158.3" font-family="Times,serif" font-size="14.00">CHRNE</text>
</g>
<!-- LINC01679 -->
<g id="node12" class="node">
<title>LINC01679</title>
<ellipse fill="none" stroke="black" cx="677.5" cy="-90" rx="63.89" ry="18"/>
<text text-anchor="middle" x="677.5" y="-86.3" font-family="Times,serif" font-size="14.00">LINC01679</text>
</g>
<!-- CHRNE&#45;&gt;LINC01679 -->
<g id="edge7" class="edge">
<title>CHRNE&#45;&gt;LINC01679</title>
<path fill="none" stroke="black" d="M677.5,-143.7C677.5,-135.98 677.5,-126.71 677.5,-118.11"/>
<polygon fill="black" stroke="black" points="681,-118.1 677.5,-108.1 674,-118.1 681,-118.1"/>
</g>
<!-- MFAP4 -->
<g id="node13" class="node">
<title>MFAP4</title>
<ellipse fill="none" stroke="black" cx="803.5" cy="-90" rx="44.39" ry="18"/>
<text text-anchor="middle" x="803.5" y="-86.3" font-family="Times,serif" font-size="14.00">MFAP4</text>
</g>
<!-- RCAN1 -->
<g id="node14" class="node">
<title>RCAN1</title>
<ellipse fill="none" stroke="black" cx="750.5" cy="-18" rx="44.39" ry="18"/>
<text text-anchor="middle" x="750.5" y="-14.3" font-family="Times,serif" font-size="14.00">RCAN1</text>
</g>
<!-- MFAP4&#45;&gt;RCAN1 -->
<g id="edge8" class="edge">
<title>MFAP4&#45;&gt;RCAN1</title>
<path fill="none" stroke="black" d="M790.94,-72.41C784.4,-63.78 776.29,-53.06 769.04,-43.5"/>
<polygon fill="black" stroke="black" points="771.8,-41.34 762.97,-35.47 766.21,-45.56 771.8,-41.34"/>
</g>
<!-- HSPB6 -->
<g id="node15" class="node">
<title>HSPB6</title>
<ellipse fill="none" stroke="black" cx="856.5" cy="-18" rx="44.39" ry="18"/>
<text text-anchor="middle" x="856.5" y="-14.3" font-family="Times,serif" font-size="14.00">HSPB6</text>
</g>
<!-- MFAP4&#45;&gt;HSPB6 -->
<g id="edge9" class="edge">
<title>MFAP4&#45;&gt;HSPB6</title>
<path fill="none" stroke="black" d="M816.06,-72.41C822.59,-63.78 830.71,-53.06 837.95,-43.5"/>
<polygon fill="black" stroke="black" points="840.79,-45.55 844.03,-35.47 835.21,-41.33 840.79,-45.55"/>
</g>
<!-- TMEM119 -->
<g id="node16" class="node">
<title>TMEM119</title>
<ellipse fill="none" stroke="black" cx="803.5" cy="-162" rx="60" ry="18"/>
<text text-anchor="middle" x="803.5" y="-158.3" font-family="Times,serif" font-size="14.00">TMEM119</text>
</g>
<!-- TMEM119&#45;&gt;MFAP4 -->
<g id="edge10" class="edge">
<title>TMEM119&#45;&gt;MFAP4</title>
<path fill="none" stroke="black" d="M803.5,-143.7C803.5,-135.98 803.5,-126.71 803.5,-118.11"/>
<polygon fill="black" stroke="black" points="807,-118.1 803.5,-108.1 800,-118.1 807,-118.1"/>
</g>
<!-- FRZB -->
<g id="node17" class="node">
<title>FRZB</title>
<ellipse fill="none" stroke="black" cx="921.5" cy="-162" rx="37.09" ry="18"/>
<text text-anchor="middle" x="921.5" y="-158.3" font-family="Times,serif" font-size="14.00">FRZB</text>
</g>
<!-- FAM107A -->
<g id="node18" class="node">
<title>FAM107A</title>
<ellipse fill="none" stroke="black" cx="921.5" cy="-90" rx="56" ry="18"/>
<text text-anchor="middle" x="921.5" y="-86.3" font-family="Times,serif" font-size="14.00">FAM107A</text>
</g>
<!-- FRZB&#45;&gt;FAM107A -->
<g id="edge11" class="edge">
<title>FRZB&#45;&gt;FAM107A</title>
<path fill="none" stroke="black" d="M921.5,-143.7C921.5,-135.98 921.5,-126.71 921.5,-118.11"/>
<polygon fill="black" stroke="black" points="925,-118.1 921.5,-108.1 918,-118.1 925,-118.1"/>
</g>
<!-- SRPX -->
<g id="node19" class="node">
<title>SRPX</title>
<ellipse fill="none" stroke="black" cx="1044.45" cy="-162" rx="36.5" ry="18"/>
<text text-anchor="middle" x="1044.45" y="-158.3" font-family="Times,serif" font-size="14.00">SRPX</text>
</g>
<!-- KCTD12 -->
<g id="node20" class="node">
<title>KCTD12</title>
<ellipse fill="none" stroke="black" cx="1044.45" cy="-90" rx="48.99" ry="18"/>
<text text-anchor="middle" x="1044.45" y="-86.3" font-family="Times,serif" font-size="14.00">KCTD12</text>
</g>
<!-- SRPX&#45;&gt;KCTD12 -->
<g id="edge12" class="edge">
<title>SRPX&#45;&gt;KCTD12</title>
<path fill="none" stroke="black" d="M1044.45,-143.7C1044.45,-135.98 1044.45,-126.71 1044.45,-118.11"/>
<polygon fill="black" stroke="black" points="1047.95,-118.1 1044.45,-108.1 1040.95,-118.1 1047.95,-118.1"/>
</g>
<!-- CD22 -->
<g id="node21" class="node">
<title>CD22</title>
<ellipse fill="none" stroke="black" cx="1135.45" cy="-162" rx="36.5" ry="18"/>
<text text-anchor="middle" x="1135.45" y="-158.3" font-family="Times,serif" font-size="14.00">CD22</text>
</g>
<!-- CD37 -->
<g id="node22" class="node">
<title>CD37</title>
<ellipse fill="none" stroke="black" cx="1196.45" cy="-90" rx="36.5" ry="18"/>
<text text-anchor="middle" x="1196.45" y="-86.3" font-family="Times,serif" font-size="14.00">CD37</text>
</g>
<!-- CD22&#45;&gt;CD37 -->
<g id="edge13" class="edge">
<title>CD22&#45;&gt;CD37</title>
<path fill="none" stroke="black" d="M1149.35,-145.12C1157.25,-136.08 1167.25,-124.58 1176.05,-114.52"/>
<polygon fill="black" stroke="black" points="1178.83,-116.66 1182.75,-106.82 1173.55,-112.07 1178.83,-116.66"/>
</g>
<!-- PTPRCAP -->
<g id="node23" class="node">
<title>PTPRCAP</title>
<ellipse fill="none" stroke="black" cx="1245.45" cy="-162" rx="56" ry="18"/>
<text text-anchor="middle" x="1245.45" y="-158.3" font-family="Times,serif" font-size="14.00">PTPRCAP</text>
</g>
<!-- PTPRCAP&#45;&gt;CD37 -->
<g id="edge14" class="edge">
<title>PTPRCAP&#45;&gt;CD37</title>
<path fill="none" stroke="black" d="M1233.65,-144.05C1227.65,-135.5 1220.25,-124.97 1213.65,-115.56"/>
<polygon fill="black" stroke="black" points="1216.52,-113.55 1207.95,-107.31 1210.76,-117.53 1216.52,-113.55"/>
</g>
<!-- SNORD3A -->
<g id="node24" class="node">
<title>SNORD3A</title>
<ellipse fill="none" stroke="black" cx="1377.45" cy="-162" rx="58.5" ry="18"/>
<text text-anchor="middle" x="1377.45" y="-158.3" font-family="Times,serif" font-size="14.00">SNORD3A</text>
</g>
<!-- H4C3 -->
<g id="node25" class="node">
<title>H4C3</title>
<ellipse fill="none" stroke="black" cx="1377.45" cy="-90" rx="37.09" ry="18"/>
<text text-anchor="middle" x="1377.45" y="-86.3" font-family="Times,serif" font-size="14.00">H4C3</text>
</g>
<!-- SNORD3A&#45;&gt;H4C3 -->
<g id="edge15" class="edge">
<title>SNORD3A&#45;&gt;H4C3</title>
<path fill="none" stroke="black" d="M1377.45,-143.7C1377.45,-135.98 1377.45,-126.71 1377.45,-118.11"/>
<polygon fill="black" stroke="black" points="1380.95,-118.1 1377.45,-108.1 1373.95,-118.1 1380.95,-118.1"/>
</g>
<!-- ALOX15B -->
<g id="node26" class="node">
<title>ALOX15B</title>
<ellipse fill="none" stroke="black" cx="1509.45" cy="-162" rx="55.49" ry="18"/>
<text text-anchor="middle" x="1509.45" y="-158.3" font-family="Times,serif" font-size="14.00">ALOX15B</text>
</g>
<!-- LYPD3 -->
<g id="node27" class="node">
<title>LYPD3</title>
<ellipse fill="none" stroke="black" cx="1509.45" cy="-90" rx="41.69" ry="18"/>
<text text-anchor="middle" x="1509.45" y="-86.3" font-family="Times,serif" font-size="14.00">LYPD3</text>
</g>
<!-- ALOX15B&#45;&gt;LYPD3 -->
<g id="edge16" class="edge">
<title>ALOX15B&#45;&gt;LYPD3</title>
<path fill="none" stroke="black" d="M1509.45,-143.7C1509.45,-135.98 1509.45,-126.71 1509.45,-118.11"/>
<polygon fill="black" stroke="black" points="1512.95,-118.1 1509.45,-108.1 1505.95,-118.1 1512.95,-118.1"/>
</g>
<!-- CARMN -->
<g id="node28" class="node">
<title>CARMN</title>
<ellipse fill="none" stroke="black" cx="1630.45" cy="-162" rx="48.19" ry="18"/>
<text text-anchor="middle" x="1630.45" y="-158.3" font-family="Times,serif" font-size="14.00">CARMN</text>
</g>
<!-- GJD3 -->
<g id="node29" class="node">
<title>GJD3</title>
<ellipse fill="none" stroke="black" cx="1630.45" cy="-90" rx="34.5" ry="18"/>
<text text-anchor="middle" x="1630.45" y="-86.3" font-family="Times,serif" font-size="14.00">GJD3</text>
</g>
<!-- CARMN&#45;&gt;GJD3 -->
<g id="edge17" class="edge">
<title>CARMN&#45;&gt;GJD3</title>
<path fill="none" stroke="black" d="M1630.45,-143.7C1630.45,-135.98 1630.45,-126.71 1630.45,-118.11"/>
<polygon fill="black" stroke="black" points="1633.95,-118.1 1630.45,-108.1 1626.95,-118.1 1633.95,-118.1"/>
</g>
<!-- DPY19L2P2 -->
<g id="node30" class="node">
<title>DPY19L2P2</title>
<ellipse fill="none" stroke="black" cx="1762.45" cy="-162" rx="65.79" ry="18"/>
<text text-anchor="middle" x="1762.45" y="-158.3" font-family="Times,serif" font-size="14.00">DPY19L2P2</text>
</g>
<!-- AKR1B1 -->
<g id="node31" class="node">
<title>AKR1B1</title>
<ellipse fill="none" stroke="black" cx="1762.45" cy="-90" rx="49.5" ry="18"/>
<text text-anchor="middle" x="1762.45" y="-86.3" font-family="Times,serif" font-size="14.00">AKR1B1</text>
</g>
<!-- DPY19L2P2&#45;&gt;AKR1B1 -->
<g id="edge18" class="edge">
<title>DPY19L2P2&#45;&gt;AKR1B1</title>
<path fill="none" stroke="black" d="M1762.45,-143.7C1762.45,-135.98 1762.45,-126.71 1762.45,-118.11"/>
<polygon fill="black" stroke="black" points="1765.95,-118.1 1762.45,-108.1 1758.95,-118.1 1765.95,-118.1"/>
</g>
<!-- MPZ -->
<g id="node32" class="node">
<title>MPZ</title>
<ellipse fill="none" stroke="black" cx="1893.45" cy="-162" rx="32.5" ry="18"/>
<text text-anchor="middle" x="1893.45" y="-158.3" font-family="Times,serif" font-size="14.00">MPZ</text>
</g>
<!-- ARHGAP15 -->
<g id="node33" class="node">
<title>ARHGAP15</title>
<ellipse fill="none" stroke="black" cx="1893.45" cy="-90" rx="63.89" ry="18"/>
<text text-anchor="middle" x="1893.45" y="-86.3" font-family="Times,serif" font-size="14.00">ARHGAP15</text>
</g>
<!-- MPZ&#45;&gt;ARHGAP15 -->
<g id="edge19" class="edge">
<title>MPZ&#45;&gt;ARHGAP15</title>
<path fill="none" stroke="black" d="M1893.45,-143.7C1893.45,-135.98 1893.45,-126.71 1893.45,-118.11"/>
<polygon fill="black" stroke="black" points="1896.95,-118.1 1893.45,-108.1 1889.95,-118.1 1896.95,-118.1"/>
</g>
<!-- AOX1 -->
<g id="node34" class="node">
<title>AOX1</title>
<ellipse fill="none" stroke="black" cx="2016.45" cy="-162" rx="36.5" ry="18"/>
<text text-anchor="middle" x="2016.45" y="-158.3" font-family="Times,serif" font-size="14.00">AOX1</text>
</g>
<!-- MMP9 -->
<g id="node35" class="node">
<title>MMP9</title>
<ellipse fill="none" stroke="black" cx="2016.45" cy="-90" rx="41.69" ry="18"/>
<text text-anchor="middle" x="2016.45" y="-86.3" font-family="Times,serif" font-size="14.00">MMP9</text>
</g>
<!-- AOX1&#45;&gt;MMP9 -->
<g id="edge20" class="edge">
<title>AOX1&#45;&gt;MMP9</title>
<path fill="none" stroke="black" d="M2016.45,-143.7C2016.45,-135.98 2016.45,-126.71 2016.45,-118.11"/>
<polygon fill="black" stroke="black" points="2019.95,-118.1 2016.45,-108.1 2012.95,-118.1 2019.95,-118.1"/>
</g>
<!-- MEG3 -->
<g id="node36" class="node">
<title>MEG3</title>
<ellipse fill="none" stroke="black" cx="2137.45" cy="-90" rx="40.5" ry="18"/>
<text text-anchor="middle" x="2137.45" y="-86.3" font-family="Times,serif" font-size="14.00">MEG3</text>
</g>
<!-- CACNA1H -->
<g id="node37" class="node">
<title>CACNA1H</title>
<ellipse fill="none" stroke="black" cx="2137.45" cy="-18" rx="58.5" ry="18"/>
<text text-anchor="middle" x="2137.45" y="-14.3" font-family="Times,serif" font-size="14.00">CACNA1H</text>
</g>
<!-- MEG3&#45;&gt;CACNA1H -->
<g id="edge21" class="edge">
<title>MEG3&#45;&gt;CACNA1H</title>
<path fill="none" stroke="black" d="M2137.45,-71.7C2137.45,-63.98 2137.45,-54.71 2137.45,-46.11"/>
<polygon fill="black" stroke="black" points="2140.95,-46.1 2137.45,-36.1 2133.95,-46.1 2140.95,-46.1"/>
</g>
<!-- AL135999.1 -->
<g id="node38" class="node">
<title>AL135999.1</title>
<ellipse fill="none" stroke="black" cx="2137.45" cy="-162" rx="67" ry="18"/>
<text text-anchor="middle" x="2137.45" y="-158.3" font-family="Times,serif" font-size="14.00">AL135999.1</text>
</g>
<!-- AL135999.1&#45;&gt;MEG3 -->
<g id="edge22" class="edge">
<title>AL135999.1&#45;&gt;MEG3</title>
<path fill="none" stroke="black" d="M2137.45,-143.7C2137.45,-135.98 2137.45,-126.71 2137.45,-118.11"/>
<polygon fill="black" stroke="black" points="2140.95,-118.1 2137.45,-108.1 2133.95,-118.1 2140.95,-118.1"/>
</g>
</g>
</svg>
