<?xml version="1.0" encoding="UTF-8" standalone="no"?>
<!DOCTYPE svg PUBLIC "-//W3C//DTD SVG 1.1//EN"
 "http://www.w3.org/Graphics/SVG/1.1/DTD/svg11.dtd">
<!-- Generated by graphviz version 2.43.0 (0)
 -->
<!-- Pages: 1 -->
<svg width="5389pt" height="260pt"
 viewBox="0.00 0.00 5389.05 260.00" xmlns="http://www.w3.org/2000/svg" xmlns:xlink="http://www.w3.org/1999/xlink">
<g id="graph0" class="graph" transform="scale(1 1) rotate(0) translate(4 256)">
<polygon fill="white" stroke="transparent" points="-4,4 -4,-256 5385.05,-256 5385.05,4 -4,4"/>
<!-- JAK1 -->
<g id="node1" class="node">
<title>JAK1</title>
<ellipse fill="none" stroke="black" cx="39" cy="-162" rx="33.29" ry="18"/>
<text text-anchor="middle" x="39" y="-158.3" font-family="Times,serif" font-size="14.00">JAK1</text>
</g>
<!-- GNG5 -->
<g id="node2" class="node">
<title>GNG5</title>
<ellipse fill="none" stroke="black" cx="39" cy="-90" rx="39" ry="18"/>
<text text-anchor="middle" x="39" y="-86.3" font-family="Times,serif" font-size="14.00">GNG5</text>
</g>
<!-- JAK1&#45;&gt;GNG5 -->
<g id="edge1" class="edge">
<title>JAK1&#45;&gt;GNG5</title>
<path fill="none" stroke="black" d="M39,-143.7C39,-135.98 39,-126.71 39,-118.11"/>
<polygon fill="black" stroke="black" points="42.5,-118.1 39,-108.1 35.5,-118.1 42.5,-118.1"/>
</g>
<!-- SSB -->
<g id="node3" class="node">
<title>SSB</title>
<ellipse fill="none" stroke="black" cx="39" cy="-18" rx="30" ry="18"/>
<text text-anchor="middle" x="39" y="-14.3" font-family="Times,serif" font-size="14.00">SSB</text>
</g>
<!-- GNG5&#45;&gt;SSB -->
<g id="edge2" class="edge">
<title>GNG5&#45;&gt;SSB</title>
<path fill="none" stroke="black" d="M39,-71.7C39,-63.98 39,-54.71 39,-46.11"/>
<polygon fill="black" stroke="black" points="42.5,-46.1 39,-36.1 35.5,-46.1 42.5,-46.1"/>
</g>
<!-- BZW1 -->
<g id="node4" class="node">
<title>BZW1</title>
<ellipse fill="none" stroke="black" cx="39" cy="-234" rx="39" ry="18"/>
<text text-anchor="middle" x="39" y="-230.3" font-family="Times,serif" font-size="14.00">BZW1</text>
</g>
<!-- BZW1&#45;&gt;JAK1 -->
<g id="edge3" class="edge">
<title>BZW1&#45;&gt;JAK1</title>
<path fill="none" stroke="black" d="M39,-215.7C39,-207.98 39,-198.71 39,-190.11"/>
<polygon fill="black" stroke="black" points="42.5,-190.1 39,-180.1 35.5,-190.1 42.5,-190.1"/>
</g>
<!-- ARPC5 -->
<g id="node5" class="node">
<title>ARPC5</title>
<ellipse fill="none" stroke="black" cx="197" cy="-90" rx="43" ry="18"/>
<text text-anchor="middle" x="197" y="-86.3" font-family="Times,serif" font-size="14.00">ARPC5</text>
</g>
<!-- OST4 -->
<g id="node6" class="node">
<title>OST4</title>
<ellipse fill="none" stroke="black" cx="197" cy="-18" rx="36.5" ry="18"/>
<text text-anchor="middle" x="197" y="-14.3" font-family="Times,serif" font-size="14.00">OST4</text>
</g>
<!-- ARPC5&#45;&gt;OST4 -->
<g id="edge4" class="edge">
<title>ARPC5&#45;&gt;OST4</title>
<path fill="none" stroke="black" d="M197,-71.7C197,-63.98 197,-54.71 197,-46.11"/>
<polygon fill="black" stroke="black" points="200.5,-46.1 197,-36.1 193.5,-46.1 200.5,-46.1"/>
</g>
<!-- TMSB10 -->
<g id="node7" class="node">
<title>TMSB10</title>
<ellipse fill="none" stroke="black" cx="141" cy="-162" rx="50.89" ry="18"/>
<text text-anchor="middle" x="141" y="-158.3" font-family="Times,serif" font-size="14.00">TMSB10</text>
</g>
<!-- TMSB10&#45;&gt;ARPC5 -->
<g id="edge5" class="edge">
<title>TMSB10&#45;&gt;ARPC5</title>
<path fill="none" stroke="black" d="M154.27,-144.41C161.17,-135.78 169.75,-125.06 177.4,-115.5"/>
<polygon fill="black" stroke="black" points="180.31,-117.47 183.82,-107.47 174.84,-113.09 180.31,-117.47"/>
</g>
<!-- ACTR3 -->
<g id="node8" class="node">
<title>ACTR3</title>
<ellipse fill="none" stroke="black" cx="252" cy="-162" rx="42.49" ry="18"/>
<text text-anchor="middle" x="252" y="-158.3" font-family="Times,serif" font-size="14.00">ACTR3</text>
</g>
<!-- ACTR3&#45;&gt;ARPC5 -->
<g id="edge6" class="edge">
<title>ACTR3&#45;&gt;ARPC5</title>
<path fill="none" stroke="black" d="M239.24,-144.76C232.47,-136.14 224,-125.36 216.42,-115.73"/>
<polygon fill="black" stroke="black" points="219,-113.34 210.07,-107.63 213.49,-117.66 219,-113.34"/>
</g>
<!-- BTG2 -->
<g id="node9" class="node">
<title>BTG2</title>
<ellipse fill="none" stroke="black" cx="252" cy="-234" rx="36.5" ry="18"/>
<text text-anchor="middle" x="252" y="-230.3" font-family="Times,serif" font-size="14.00">BTG2</text>
</g>
<!-- BTG2&#45;&gt;ACTR3 -->
<g id="edge7" class="edge">
<title>BTG2&#45;&gt;ACTR3</title>
<path fill="none" stroke="black" d="M252,-215.7C252,-207.98 252,-198.71 252,-190.11"/>
<polygon fill="black" stroke="black" points="255.5,-190.1 252,-180.1 248.5,-190.1 255.5,-190.1"/>
</g>
<!-- ZFP36L2 -->
<g id="node10" class="node">
<title>ZFP36L2</title>
<ellipse fill="none" stroke="black" cx="360" cy="-234" rx="53.5" ry="18"/>
<text text-anchor="middle" x="360" y="-230.3" font-family="Times,serif" font-size="14.00">ZFP36L2</text>
</g>
<!-- RHOB -->
<g id="node11" class="node">
<title>RHOB</title>
<ellipse fill="none" stroke="black" cx="360" cy="-162" rx="39.79" ry="18"/>
<text text-anchor="middle" x="360" y="-158.3" font-family="Times,serif" font-size="14.00">RHOB</text>
</g>
<!-- ZFP36L2&#45;&gt;RHOB -->
<g id="edge8" class="edge">
<title>ZFP36L2&#45;&gt;RHOB</title>
<path fill="none" stroke="black" d="M360,-215.7C360,-207.98 360,-198.71 360,-190.11"/>
<polygon fill="black" stroke="black" points="363.5,-190.1 360,-180.1 356.5,-190.1 363.5,-190.1"/>
</g>
<!-- ARPC2 -->
<g id="node12" class="node">
<title>ARPC2</title>
<ellipse fill="none" stroke="black" cx="474" cy="-234" rx="43" ry="18"/>
<text text-anchor="middle" x="474" y="-230.3" font-family="Times,serif" font-size="14.00">ARPC2</text>
</g>
<!-- CLIC1 -->
<g id="node13" class="node">
<title>CLIC1</title>
<ellipse fill="none" stroke="black" cx="528" cy="-162" rx="39.79" ry="18"/>
<text text-anchor="middle" x="528" y="-158.3" font-family="Times,serif" font-size="14.00">CLIC1</text>
</g>
<!-- ARPC2&#45;&gt;CLIC1 -->
<g id="edge9" class="edge">
<title>ARPC2&#45;&gt;CLIC1</title>
<path fill="none" stroke="black" d="M486.52,-216.76C493.27,-208.02 501.73,-197.05 509.24,-187.31"/>
<polygon fill="black" stroke="black" points="512.2,-189.2 515.54,-179.15 506.66,-184.93 512.2,-189.2"/>
</g>
<!-- EGR1 -->
<g id="node14" class="node">
<title>EGR1</title>
<ellipse fill="none" stroke="black" cx="683" cy="-234" rx="37.89" ry="18"/>
<text text-anchor="middle" x="683" y="-230.3" font-family="Times,serif" font-size="14.00">EGR1</text>
</g>
<!-- CCNL1 -->
<g id="node15" class="node">
<title>CCNL1</title>
<ellipse fill="none" stroke="black" cx="683" cy="-162" rx="44.39" ry="18"/>
<text text-anchor="middle" x="683" y="-158.3" font-family="Times,serif" font-size="14.00">CCNL1</text>
</g>
<!-- EGR1&#45;&gt;CCNL1 -->
<g id="edge10" class="edge">
<title>EGR1&#45;&gt;CCNL1</title>
<path fill="none" stroke="black" d="M683,-215.7C683,-207.98 683,-198.71 683,-190.11"/>
<polygon fill="black" stroke="black" points="686.5,-190.1 683,-180.1 679.5,-190.1 686.5,-190.1"/>
</g>
<!-- HNRNPH1 -->
<g id="node16" class="node">
<title>HNRNPH1</title>
<ellipse fill="none" stroke="black" cx="800" cy="-234" rx="61.19" ry="18"/>
<text text-anchor="middle" x="800" y="-230.3" font-family="Times,serif" font-size="14.00">HNRNPH1</text>
</g>
<!-- TRA2B -->
<g id="node17" class="node">
<title>TRA2B</title>
<ellipse fill="none" stroke="black" cx="800" cy="-162" rx="42.49" ry="18"/>
<text text-anchor="middle" x="800" y="-158.3" font-family="Times,serif" font-size="14.00">TRA2B</text>
</g>
<!-- HNRNPH1&#45;&gt;TRA2B -->
<g id="edge11" class="edge">
<title>HNRNPH1&#45;&gt;TRA2B</title>
<path fill="none" stroke="black" d="M800,-215.7C800,-207.98 800,-198.71 800,-190.11"/>
<polygon fill="black" stroke="black" points="803.5,-190.1 800,-180.1 796.5,-190.1 803.5,-190.1"/>
</g>
<!-- SNHG8 -->
<g id="node18" class="node">
<title>SNHG8</title>
<ellipse fill="none" stroke="black" cx="581" cy="-234" rx="46.29" ry="18"/>
<text text-anchor="middle" x="581" y="-230.3" font-family="Times,serif" font-size="14.00">SNHG8</text>
</g>
<!-- SNHG8&#45;&gt;CLIC1 -->
<g id="edge12" class="edge">
<title>SNHG8&#45;&gt;CLIC1</title>
<path fill="none" stroke="black" d="M568.44,-216.41C561.9,-207.78 553.79,-197.06 546.54,-187.5"/>
<polygon fill="black" stroke="black" points="549.3,-185.34 540.47,-179.47 543.71,-189.56 549.3,-185.34"/>
</g>
<!-- HLA&#45;A -->
<g id="node19" class="node">
<title>HLA&#45;A</title>
<ellipse fill="none" stroke="black" cx="919" cy="-234" rx="40.5" ry="18"/>
<text text-anchor="middle" x="919" y="-230.3" font-family="Times,serif" font-size="14.00">HLA&#45;A</text>
</g>
<!-- ARLN -->
<g id="node20" class="node">
<title>ARLN</title>
<ellipse fill="none" stroke="black" cx="919" cy="-162" rx="37.89" ry="18"/>
<text text-anchor="middle" x="919" y="-158.3" font-family="Times,serif" font-size="14.00">ARLN</text>
</g>
<!-- HLA&#45;A&#45;&gt;ARLN -->
<g id="edge13" class="edge">
<title>HLA&#45;A&#45;&gt;ARLN</title>
<path fill="none" stroke="black" d="M919,-215.7C919,-207.98 919,-198.71 919,-190.11"/>
<polygon fill="black" stroke="black" points="922.5,-190.1 919,-180.1 915.5,-190.1 922.5,-190.1"/>
</g>
<!-- CCT5 -->
<g id="node21" class="node">
<title>CCT5</title>
<ellipse fill="none" stroke="black" cx="1014" cy="-234" rx="36.5" ry="18"/>
<text text-anchor="middle" x="1014" y="-230.3" font-family="Times,serif" font-size="14.00">CCT5</text>
</g>
<!-- SUB1 -->
<g id="node22" class="node">
<title>SUB1</title>
<ellipse fill="none" stroke="black" cx="1014" cy="-162" rx="37.89" ry="18"/>
<text text-anchor="middle" x="1014" y="-158.3" font-family="Times,serif" font-size="14.00">SUB1</text>
</g>
<!-- CCT5&#45;&gt;SUB1 -->
<g id="edge14" class="edge">
<title>CCT5&#45;&gt;SUB1</title>
<path fill="none" stroke="black" d="M1014,-215.7C1014,-207.98 1014,-198.71 1014,-190.11"/>
<polygon fill="black" stroke="black" points="1017.5,-190.1 1014,-180.1 1010.5,-190.1 1017.5,-190.1"/>
</g>
<!-- DUSP1 -->
<g id="node23" class="node">
<title>DUSP1</title>
<ellipse fill="none" stroke="black" cx="1118" cy="-234" rx="44.39" ry="18"/>
<text text-anchor="middle" x="1118" y="-230.3" font-family="Times,serif" font-size="14.00">DUSP1</text>
</g>
<!-- HSPA1A -->
<g id="node24" class="node">
<title>HSPA1A</title>
<ellipse fill="none" stroke="black" cx="1118" cy="-162" rx="48.99" ry="18"/>
<text text-anchor="middle" x="1118" y="-158.3" font-family="Times,serif" font-size="14.00">HSPA1A</text>
</g>
<!-- DUSP1&#45;&gt;HSPA1A -->
<g id="edge15" class="edge">
<title>DUSP1&#45;&gt;HSPA1A</title>
<path fill="none" stroke="black" d="M1118,-215.7C1118,-207.98 1118,-198.71 1118,-190.11"/>
<polygon fill="black" stroke="black" points="1121.5,-190.1 1118,-180.1 1114.5,-190.1 1121.5,-190.1"/>
</g>
<!-- HLA&#45;C -->
<g id="node25" class="node">
<title>HLA&#45;C</title>
<ellipse fill="none" stroke="black" cx="1220" cy="-234" rx="40.5" ry="18"/>
<text text-anchor="middle" x="1220" y="-230.3" font-family="Times,serif" font-size="14.00">HLA&#45;C</text>
</g>
<!-- HLA&#45;E -->
<g id="node26" class="node">
<title>HLA&#45;E</title>
<ellipse fill="none" stroke="black" cx="1269" cy="-162" rx="40.5" ry="18"/>
<text text-anchor="middle" x="1269" y="-158.3" font-family="Times,serif" font-size="14.00">HLA&#45;E</text>
</g>
<!-- HLA&#45;C&#45;&gt;HLA&#45;E -->
<g id="edge16" class="edge">
<title>HLA&#45;C&#45;&gt;HLA&#45;E</title>
<path fill="none" stroke="black" d="M1231.6,-216.41C1237.6,-207.87 1245,-197.28 1251.6,-187.79"/>
<polygon fill="black" stroke="black" points="1254.57,-189.65 1257.5,-179.47 1248.86,-185.6 1254.57,-189.65"/>
</g>
<!-- HLA&#45;B -->
<g id="node27" class="node">
<title>HLA&#45;B</title>
<ellipse fill="none" stroke="black" cx="1319" cy="-234" rx="40.5" ry="18"/>
<text text-anchor="middle" x="1319" y="-230.3" font-family="Times,serif" font-size="14.00">HLA&#45;B</text>
</g>
<!-- HLA&#45;B&#45;&gt;HLA&#45;E -->
<g id="edge17" class="edge">
<title>HLA&#45;B&#45;&gt;HLA&#45;E</title>
<path fill="none" stroke="black" d="M1307.1,-216.41C1301,-207.87 1293.5,-197.28 1286.7,-187.79"/>
<polygon fill="black" stroke="black" points="1289.44,-185.6 1280.8,-179.47 1283.73,-189.65 1289.44,-185.6"/>
</g>
<!-- BRD2 -->
<g id="node28" class="node">
<title>BRD2</title>
<ellipse fill="none" stroke="black" cx="1422" cy="-234" rx="37.89" ry="18"/>
<text text-anchor="middle" x="1422" y="-230.3" font-family="Times,serif" font-size="14.00">BRD2</text>
</g>
<!-- CDKN1A -->
<g id="node29" class="node">
<title>CDKN1A</title>
<ellipse fill="none" stroke="black" cx="1422" cy="-162" rx="52" ry="18"/>
<text text-anchor="middle" x="1422" y="-158.3" font-family="Times,serif" font-size="14.00">CDKN1A</text>
</g>
<!-- BRD2&#45;&gt;CDKN1A -->
<g id="edge18" class="edge">
<title>BRD2&#45;&gt;CDKN1A</title>
<path fill="none" stroke="black" d="M1422,-215.7C1422,-207.98 1422,-198.71 1422,-190.11"/>
<polygon fill="black" stroke="black" points="1425.5,-190.1 1422,-180.1 1418.5,-190.1 1425.5,-190.1"/>
</g>
<!-- DYNLT1 -->
<g id="node30" class="node">
<title>DYNLT1</title>
<ellipse fill="none" stroke="black" cx="1595" cy="-234" rx="48.99" ry="18"/>
<text text-anchor="middle" x="1595" y="-230.3" font-family="Times,serif" font-size="14.00">DYNLT1</text>
</g>
<!-- HMGN3 -->
<g id="node31" class="node">
<title>HMGN3</title>
<ellipse fill="none" stroke="black" cx="1651" cy="-162" rx="48.99" ry="18"/>
<text text-anchor="middle" x="1651" y="-158.3" font-family="Times,serif" font-size="14.00">HMGN3</text>
</g>
<!-- DYNLT1&#45;&gt;HMGN3 -->
<g id="edge19" class="edge">
<title>DYNLT1&#45;&gt;HMGN3</title>
<path fill="none" stroke="black" d="M1608.3,-216.41C1615.2,-207.78 1623.7,-197.06 1631.4,-187.5"/>
<polygon fill="black" stroke="black" points="1634.31,-189.47 1637.8,-179.47 1628.83,-185.11 1634.31,-189.47"/>
</g>
<!-- NUCB2 -->
<g id="node32" class="node">
<title>NUCB2</title>
<ellipse fill="none" stroke="black" cx="1538" cy="-162" rx="46.29" ry="18"/>
<text text-anchor="middle" x="1538" y="-158.3" font-family="Times,serif" font-size="14.00">NUCB2</text>
</g>
<!-- DYNLT1&#45;&gt;NUCB2 -->
<g id="edge20" class="edge">
<title>DYNLT1&#45;&gt;NUCB2</title>
<path fill="none" stroke="black" d="M1581.5,-216.41C1574.5,-207.78 1565.7,-197.06 1557.9,-187.5"/>
<polygon fill="black" stroke="black" points="1560.42,-185.04 1551.4,-179.47 1554.97,-189.44 1560.42,-185.04"/>
</g>
<!-- EZR -->
<g id="node33" class="node">
<title>EZR</title>
<ellipse fill="none" stroke="black" cx="1772" cy="-234" rx="30.59" ry="18"/>
<text text-anchor="middle" x="1772" y="-230.3" font-family="Times,serif" font-size="14.00">EZR</text>
</g>
<!-- EZR&#45;&gt;HMGN3 -->
<g id="edge21" class="edge">
<title>EZR&#45;&gt;HMGN3</title>
<path fill="none" stroke="black" d="M1750.9,-220.81C1732.7,-210.25 1705.9,-194.79 1684.7,-182.51"/>
<polygon fill="black" stroke="black" points="1686.41,-179.45 1676,-177.47 1682.9,-185.51 1686.41,-179.45"/>
</g>
<!-- TAX1BP1 -->
<g id="node34" class="node">
<title>TAX1BP1</title>
<ellipse fill="none" stroke="black" cx="1772" cy="-162" rx="54" ry="18"/>
<text text-anchor="middle" x="1772" y="-158.3" font-family="Times,serif" font-size="14.00">TAX1BP1</text>
</g>
<!-- EZR&#45;&gt;TAX1BP1 -->
<g id="edge22" class="edge">
<title>EZR&#45;&gt;TAX1BP1</title>
<path fill="none" stroke="black" d="M1772,-215.7C1772,-207.98 1772,-198.71 1772,-190.11"/>
<polygon fill="black" stroke="black" points="1775.5,-190.1 1772,-180.1 1768.5,-190.1 1775.5,-190.1"/>
</g>
<!-- SNHG7 -->
<g id="node35" class="node">
<title>SNHG7</title>
<ellipse fill="none" stroke="black" cx="1890" cy="-162" rx="46.29" ry="18"/>
<text text-anchor="middle" x="1890" y="-158.3" font-family="Times,serif" font-size="14.00">SNHG7</text>
</g>
<!-- EZR&#45;&gt;SNHG7 -->
<g id="edge23" class="edge">
<title>EZR&#45;&gt;SNHG7</title>
<path fill="none" stroke="black" d="M1792.8,-220.65C1810.6,-210.12 1836.4,-194.79 1857,-182.59"/>
<polygon fill="black" stroke="black" points="1858.91,-185.53 1865.7,-177.4 1855.32,-179.52 1858.91,-185.53"/>
</g>
<!-- SARAF -->
<g id="node36" class="node">
<title>SARAF</title>
<ellipse fill="none" stroke="black" cx="1996" cy="-234" rx="43" ry="18"/>
<text text-anchor="middle" x="1996" y="-230.3" font-family="Times,serif" font-size="14.00">SARAF</text>
</g>
<!-- CD164 -->
<g id="node37" class="node">
<title>CD164</title>
<ellipse fill="none" stroke="black" cx="1996" cy="-162" rx="42.49" ry="18"/>
<text text-anchor="middle" x="1996" y="-158.3" font-family="Times,serif" font-size="14.00">CD164</text>
</g>
<!-- SARAF&#45;&gt;CD164 -->
<g id="edge24" class="edge">
<title>SARAF&#45;&gt;CD164</title>
<path fill="none" stroke="black" d="M1996,-215.7C1996,-207.98 1996,-198.71 1996,-190.11"/>
<polygon fill="black" stroke="black" points="1999.5,-190.1 1996,-180.1 1992.5,-190.1 1999.5,-190.1"/>
</g>
<!-- PDLIM1 -->
<g id="node38" class="node">
<title>PDLIM1</title>
<ellipse fill="none" stroke="black" cx="2105" cy="-162" rx="48.99" ry="18"/>
<text text-anchor="middle" x="2105" y="-158.3" font-family="Times,serif" font-size="14.00">PDLIM1</text>
</g>
<!-- NCOA7 -->
<g id="node39" class="node">
<title>NCOA7</title>
<ellipse fill="none" stroke="black" cx="2105" cy="-90" rx="45" ry="18"/>
<text text-anchor="middle" x="2105" y="-86.3" font-family="Times,serif" font-size="14.00">NCOA7</text>
</g>
<!-- PDLIM1&#45;&gt;NCOA7 -->
<g id="edge25" class="edge">
<title>PDLIM1&#45;&gt;NCOA7</title>
<path fill="none" stroke="black" d="M2105,-143.7C2105,-135.98 2105,-126.71 2105,-118.11"/>
<polygon fill="black" stroke="black" points="2108.5,-118.1 2105,-108.1 2101.5,-118.1 2108.5,-118.1"/>
</g>
<!-- SRI -->
<g id="node40" class="node">
<title>SRI</title>
<ellipse fill="none" stroke="black" cx="2204" cy="-234" rx="27.5" ry="18"/>
<text text-anchor="middle" x="2204" y="-230.3" font-family="Times,serif" font-size="14.00">SRI</text>
</g>
<!-- FIS1 -->
<g id="node41" class="node">
<title>FIS1</title>
<ellipse fill="none" stroke="black" cx="2204" cy="-162" rx="32.5" ry="18"/>
<text text-anchor="middle" x="2204" y="-158.3" font-family="Times,serif" font-size="14.00">FIS1</text>
</g>
<!-- SRI&#45;&gt;FIS1 -->
<g id="edge26" class="edge">
<title>SRI&#45;&gt;FIS1</title>
<path fill="none" stroke="black" d="M2204,-215.7C2204,-207.98 2204,-198.71 2204,-190.11"/>
<polygon fill="black" stroke="black" points="2207.5,-190.1 2204,-180.1 2200.5,-190.1 2207.5,-190.1"/>
</g>
<!-- NFIB -->
<g id="node42" class="node">
<title>NFIB</title>
<ellipse fill="none" stroke="black" cx="2284" cy="-234" rx="35.19" ry="18"/>
<text text-anchor="middle" x="2284" y="-230.3" font-family="Times,serif" font-size="14.00">NFIB</text>
</g>
<!-- VIM -->
<g id="node43" class="node">
<title>VIM</title>
<ellipse fill="none" stroke="black" cx="2284" cy="-162" rx="30" ry="18"/>
<text text-anchor="middle" x="2284" y="-158.3" font-family="Times,serif" font-size="14.00">VIM</text>
</g>
<!-- NFIB&#45;&gt;VIM -->
<g id="edge27" class="edge">
<title>NFIB&#45;&gt;VIM</title>
<path fill="none" stroke="black" d="M2284,-215.7C2284,-207.98 2284,-198.71 2284,-190.11"/>
<polygon fill="black" stroke="black" points="2287.5,-190.1 2284,-180.1 2280.5,-190.1 2287.5,-190.1"/>
</g>
<!-- TUBB4B -->
<g id="node44" class="node">
<title>TUBB4B</title>
<ellipse fill="none" stroke="black" cx="2388" cy="-234" rx="50.89" ry="18"/>
<text text-anchor="middle" x="2388" y="-230.3" font-family="Times,serif" font-size="14.00">TUBB4B</text>
</g>
<!-- DNAJA1 -->
<g id="node45" class="node">
<title>DNAJA1</title>
<ellipse fill="none" stroke="black" cx="2388" cy="-162" rx="48.19" ry="18"/>
<text text-anchor="middle" x="2388" y="-158.3" font-family="Times,serif" font-size="14.00">DNAJA1</text>
</g>
<!-- TUBB4B&#45;&gt;DNAJA1 -->
<g id="edge28" class="edge">
<title>TUBB4B&#45;&gt;DNAJA1</title>
<path fill="none" stroke="black" d="M2388,-215.7C2388,-207.98 2388,-198.71 2388,-190.11"/>
<polygon fill="black" stroke="black" points="2391.5,-190.1 2388,-180.1 2384.5,-190.1 2391.5,-190.1"/>
</g>
<!-- TXN -->
<g id="node46" class="node">
<title>TXN</title>
<ellipse fill="none" stroke="black" cx="2491" cy="-234" rx="30.59" ry="18"/>
<text text-anchor="middle" x="2491" y="-230.3" font-family="Times,serif" font-size="14.00">TXN</text>
</g>
<!-- BAG1 -->
<g id="node47" class="node">
<title>BAG1</title>
<ellipse fill="none" stroke="black" cx="2491" cy="-162" rx="37.09" ry="18"/>
<text text-anchor="middle" x="2491" y="-158.3" font-family="Times,serif" font-size="14.00">BAG1</text>
</g>
<!-- TXN&#45;&gt;BAG1 -->
<g id="edge29" class="edge">
<title>TXN&#45;&gt;BAG1</title>
<path fill="none" stroke="black" d="M2491,-215.7C2491,-207.98 2491,-198.71 2491,-190.11"/>
<polygon fill="black" stroke="black" points="2494.5,-190.1 2491,-180.1 2487.5,-190.1 2494.5,-190.1"/>
</g>
<!-- KLF6 -->
<g id="node48" class="node">
<title>KLF6</title>
<ellipse fill="none" stroke="black" cx="2591" cy="-234" rx="36" ry="18"/>
<text text-anchor="middle" x="2591" y="-230.3" font-family="Times,serif" font-size="14.00">KLF6</text>
</g>
<!-- NRARP -->
<g id="node49" class="node">
<title>NRARP</title>
<ellipse fill="none" stroke="black" cx="2591" cy="-162" rx="45" ry="18"/>
<text text-anchor="middle" x="2591" y="-158.3" font-family="Times,serif" font-size="14.00">NRARP</text>
</g>
<!-- KLF6&#45;&gt;NRARP -->
<g id="edge30" class="edge">
<title>KLF6&#45;&gt;NRARP</title>
<path fill="none" stroke="black" d="M2591,-215.7C2591,-207.98 2591,-198.71 2591,-190.11"/>
<polygon fill="black" stroke="black" points="2594.5,-190.1 2591,-180.1 2587.5,-190.1 2594.5,-190.1"/>
</g>
<!-- IFITM3 -->
<g id="node50" class="node">
<title>IFITM3</title>
<ellipse fill="none" stroke="black" cx="2105" cy="-234" rx="45" ry="18"/>
<text text-anchor="middle" x="2105" y="-230.3" font-family="Times,serif" font-size="14.00">IFITM3</text>
</g>
<!-- IFITM3&#45;&gt;PDLIM1 -->
<g id="edge31" class="edge">
<title>IFITM3&#45;&gt;PDLIM1</title>
<path fill="none" stroke="black" d="M2105,-215.7C2105,-207.98 2105,-198.71 2105,-190.11"/>
<polygon fill="black" stroke="black" points="2108.5,-190.1 2105,-180.1 2101.5,-190.1 2108.5,-190.1"/>
</g>
<!-- PRDX5 -->
<g id="node51" class="node">
<title>PRDX5</title>
<ellipse fill="none" stroke="black" cx="2761" cy="-234" rx="43.59" ry="18"/>
<text text-anchor="middle" x="2761" y="-230.3" font-family="Times,serif" font-size="14.00">PRDX5</text>
</g>
<!-- DYNLL1 -->
<g id="node52" class="node">
<title>DYNLL1</title>
<ellipse fill="none" stroke="black" cx="2703" cy="-162" rx="49.5" ry="18"/>
<text text-anchor="middle" x="2703" y="-158.3" font-family="Times,serif" font-size="14.00">DYNLL1</text>
</g>
<!-- PRDX5&#45;&gt;DYNLL1 -->
<g id="edge32" class="edge">
<title>PRDX5&#45;&gt;DYNLL1</title>
<path fill="none" stroke="black" d="M2747.5,-216.76C2740.3,-208.06 2731.3,-197.15 2723.2,-187.43"/>
<polygon fill="black" stroke="black" points="2725.85,-185.14 2716.8,-179.63 2720.44,-189.58 2725.85,-185.14"/>
</g>
<!-- LGALS3 -->
<g id="node53" class="node">
<title>LGALS3</title>
<ellipse fill="none" stroke="black" cx="2818" cy="-162" rx="48.19" ry="18"/>
<text text-anchor="middle" x="2818" y="-158.3" font-family="Times,serif" font-size="14.00">LGALS3</text>
</g>
<!-- PRDX5&#45;&gt;LGALS3 -->
<g id="edge33" class="edge">
<title>PRDX5&#45;&gt;LGALS3</title>
<path fill="none" stroke="black" d="M2774.2,-216.76C2781.3,-208.06 2790.2,-197.15 2798.1,-187.43"/>
<polygon fill="black" stroke="black" points="2800.87,-189.58 2804.5,-179.63 2795.45,-185.14 2800.87,-189.58"/>
</g>
<!-- HSPA8 -->
<g id="node54" class="node">
<title>HSPA8</title>
<ellipse fill="none" stroke="black" cx="2650" cy="-90" rx="42.49" ry="18"/>
<text text-anchor="middle" x="2650" y="-86.3" font-family="Times,serif" font-size="14.00">HSPA8</text>
</g>
<!-- DYNLL1&#45;&gt;HSPA8 -->
<g id="edge34" class="edge">
<title>DYNLL1&#45;&gt;HSPA8</title>
<path fill="none" stroke="black" d="M2690.4,-144.41C2683.9,-135.78 2675.8,-125.06 2668.5,-115.5"/>
<polygon fill="black" stroke="black" points="2671.29,-113.39 2662.5,-107.47 2665.68,-117.58 2671.29,-113.39"/>
</g>
<!-- PSMB5 -->
<g id="node55" class="node">
<title>PSMB5</title>
<ellipse fill="none" stroke="black" cx="2756" cy="-90" rx="45.5" ry="18"/>
<text text-anchor="middle" x="2756" y="-86.3" font-family="Times,serif" font-size="14.00">PSMB5</text>
</g>
<!-- DYNLL1&#45;&gt;PSMB5 -->
<g id="edge35" class="edge">
<title>DYNLL1&#45;&gt;PSMB5</title>
<path fill="none" stroke="black" d="M2715.6,-144.41C2722.1,-135.78 2730.2,-125.06 2737.4,-115.5"/>
<polygon fill="black" stroke="black" points="2740.24,-117.55 2743.5,-107.47 2734.67,-113.32 2740.24,-117.55"/>
</g>
<!-- SLC38A2 -->
<g id="node56" class="node">
<title>SLC38A2</title>
<ellipse fill="none" stroke="black" cx="3002" cy="-234" rx="54" ry="18"/>
<text text-anchor="middle" x="3002" y="-230.3" font-family="Times,serif" font-size="14.00">SLC38A2</text>
</g>
<!-- NEAT1 -->
<g id="node57" class="node">
<title>NEAT1</title>
<ellipse fill="none" stroke="black" cx="2927" cy="-162" rx="43" ry="18"/>
<text text-anchor="middle" x="2927" y="-158.3" font-family="Times,serif" font-size="14.00">NEAT1</text>
</g>
<!-- SLC38A2&#45;&gt;NEAT1 -->
<g id="edge36" class="edge">
<title>SLC38A2&#45;&gt;NEAT1</title>
<path fill="none" stroke="black" d="M2984.6,-216.76C2974.7,-207.53 2962.2,-195.83 2951.3,-185.7"/>
<polygon fill="black" stroke="black" points="2953.49,-182.96 2943.8,-178.67 2948.71,-188.06 2953.49,-182.96"/>
</g>
<!-- APLP2 -->
<g id="node58" class="node">
<title>APLP2</title>
<ellipse fill="none" stroke="black" cx="3029" cy="-162" rx="41.69" ry="18"/>
<text text-anchor="middle" x="3029" y="-158.3" font-family="Times,serif" font-size="14.00">APLP2</text>
</g>
<!-- SLC38A2&#45;&gt;APLP2 -->
<g id="edge37" class="edge">
<title>SLC38A2&#45;&gt;APLP2</title>
<path fill="none" stroke="black" d="M3008.5,-216.05C3011.6,-208.06 3015.4,-198.33 3018.8,-189.4"/>
<polygon fill="black" stroke="black" points="3022.18,-190.38 3022.5,-179.79 3015.64,-187.86 3022.18,-190.38"/>
</g>
<!-- LAMP1 -->
<g id="node59" class="node">
<title>LAMP1</title>
<ellipse fill="none" stroke="black" cx="3029" cy="-90" rx="44.39" ry="18"/>
<text text-anchor="middle" x="3029" y="-86.3" font-family="Times,serif" font-size="14.00">LAMP1</text>
</g>
<!-- APLP2&#45;&gt;LAMP1 -->
<g id="edge38" class="edge">
<title>APLP2&#45;&gt;LAMP1</title>
<path fill="none" stroke="black" d="M3029,-143.7C3029,-135.98 3029,-126.71 3029,-118.11"/>
<polygon fill="black" stroke="black" points="3032.5,-118.1 3029,-108.1 3025.5,-118.1 3032.5,-118.1"/>
</g>
<!-- MALAT1 -->
<g id="node60" class="node">
<title>MALAT1</title>
<ellipse fill="none" stroke="black" cx="3166" cy="-234" rx="50.09" ry="18"/>
<text text-anchor="middle" x="3166" y="-230.3" font-family="Times,serif" font-size="14.00">MALAT1</text>
</g>
<!-- ARGLU1 -->
<g id="node61" class="node">
<title>ARGLU1</title>
<ellipse fill="none" stroke="black" cx="3166" cy="-162" rx="50.09" ry="18"/>
<text text-anchor="middle" x="3166" y="-158.3" font-family="Times,serif" font-size="14.00">ARGLU1</text>
</g>
<!-- MALAT1&#45;&gt;ARGLU1 -->
<g id="edge39" class="edge">
<title>MALAT1&#45;&gt;ARGLU1</title>
<path fill="none" stroke="black" d="M3166,-215.7C3166,-207.98 3166,-198.71 3166,-190.11"/>
<polygon fill="black" stroke="black" points="3169.5,-190.1 3166,-180.1 3162.5,-190.1 3169.5,-190.1"/>
</g>
<!-- PNN -->
<g id="node62" class="node">
<title>PNN</title>
<ellipse fill="none" stroke="black" cx="3166" cy="-90" rx="32.5" ry="18"/>
<text text-anchor="middle" x="3166" y="-86.3" font-family="Times,serif" font-size="14.00">PNN</text>
</g>
<!-- ARGLU1&#45;&gt;PNN -->
<g id="edge40" class="edge">
<title>ARGLU1&#45;&gt;PNN</title>
<path fill="none" stroke="black" d="M3166,-143.7C3166,-135.98 3166,-126.71 3166,-118.11"/>
<polygon fill="black" stroke="black" points="3169.5,-118.1 3166,-108.1 3162.5,-118.1 3169.5,-118.1"/>
</g>
<!-- TUBA1B -->
<g id="node63" class="node">
<title>TUBA1B</title>
<ellipse fill="none" stroke="black" cx="3284" cy="-234" rx="50.09" ry="18"/>
<text text-anchor="middle" x="3284" y="-230.3" font-family="Times,serif" font-size="14.00">TUBA1B</text>
</g>
<!-- SPCS2 -->
<g id="node64" class="node">
<title>SPCS2</title>
<ellipse fill="none" stroke="black" cx="3284" cy="-162" rx="42.49" ry="18"/>
<text text-anchor="middle" x="3284" y="-158.3" font-family="Times,serif" font-size="14.00">SPCS2</text>
</g>
<!-- TUBA1B&#45;&gt;SPCS2 -->
<g id="edge41" class="edge">
<title>TUBA1B&#45;&gt;SPCS2</title>
<path fill="none" stroke="black" d="M3284,-215.7C3284,-207.98 3284,-198.71 3284,-190.11"/>
<polygon fill="black" stroke="black" points="3287.5,-190.1 3284,-180.1 3280.5,-190.1 3287.5,-190.1"/>
</g>
<!-- CD9 -->
<g id="node65" class="node">
<title>CD9</title>
<ellipse fill="none" stroke="black" cx="3445" cy="-234" rx="30.59" ry="18"/>
<text text-anchor="middle" x="3445" y="-230.3" font-family="Times,serif" font-size="14.00">CD9</text>
</g>
<!-- TUBA1C -->
<g id="node66" class="node">
<title>TUBA1C</title>
<ellipse fill="none" stroke="black" cx="3394" cy="-162" rx="50.09" ry="18"/>
<text text-anchor="middle" x="3394" y="-158.3" font-family="Times,serif" font-size="14.00">TUBA1C</text>
</g>
<!-- CD9&#45;&gt;TUBA1C -->
<g id="edge42" class="edge">
<title>CD9&#45;&gt;TUBA1C</title>
<path fill="none" stroke="black" d="M3433.4,-217.12C3427.2,-208.51 3419.3,-197.67 3412.2,-187.96"/>
<polygon fill="black" stroke="black" points="3414.95,-185.78 3406.2,-179.8 3409.31,-189.93 3414.95,-185.78"/>
</g>
<!-- UBC -->
<g id="node67" class="node">
<title>UBC</title>
<ellipse fill="none" stroke="black" cx="3495" cy="-162" rx="32.5" ry="18"/>
<text text-anchor="middle" x="3495" y="-158.3" font-family="Times,serif" font-size="14.00">UBC</text>
</g>
<!-- CD9&#45;&gt;UBC -->
<g id="edge43" class="edge">
<title>CD9&#45;&gt;UBC</title>
<path fill="none" stroke="black" d="M3456.3,-217.12C3462.6,-208.38 3470.5,-197.35 3477.5,-187.54"/>
<polygon fill="black" stroke="black" points="3480.4,-189.5 3483.3,-179.31 3474.68,-185.47 3480.4,-189.5"/>
</g>
<!-- TPT1 -->
<g id="node68" class="node">
<title>TPT1</title>
<ellipse fill="none" stroke="black" cx="3596" cy="-234" rx="34.5" ry="18"/>
<text text-anchor="middle" x="3596" y="-230.3" font-family="Times,serif" font-size="14.00">TPT1</text>
</g>
<!-- TUBA1A -->
<g id="node69" class="node">
<title>TUBA1A</title>
<ellipse fill="none" stroke="black" cx="3596" cy="-162" rx="50.09" ry="18"/>
<text text-anchor="middle" x="3596" y="-158.3" font-family="Times,serif" font-size="14.00">TUBA1A</text>
</g>
<!-- TPT1&#45;&gt;TUBA1A -->
<g id="edge44" class="edge">
<title>TPT1&#45;&gt;TUBA1A</title>
<path fill="none" stroke="black" d="M3596,-215.7C3596,-207.98 3596,-198.71 3596,-190.11"/>
<polygon fill="black" stroke="black" points="3599.5,-190.1 3596,-180.1 3592.5,-190.1 3599.5,-190.1"/>
</g>
<!-- POMP -->
<g id="node70" class="node">
<title>POMP</title>
<ellipse fill="none" stroke="black" cx="3815" cy="-234" rx="40.5" ry="18"/>
<text text-anchor="middle" x="3815" y="-230.3" font-family="Times,serif" font-size="14.00">POMP</text>
</g>
<!-- KRT18 -->
<g id="node71" class="node">
<title>KRT18</title>
<ellipse fill="none" stroke="black" cx="3706" cy="-162" rx="42.49" ry="18"/>
<text text-anchor="middle" x="3706" y="-158.3" font-family="Times,serif" font-size="14.00">KRT18</text>
</g>
<!-- POMP&#45;&gt;KRT18 -->
<g id="edge45" class="edge">
<title>POMP&#45;&gt;KRT18</title>
<path fill="none" stroke="black" d="M3792.9,-218.83C3776.9,-208.56 3755.1,-194.52 3737.3,-183.09"/>
<polygon fill="black" stroke="black" points="3738.71,-179.83 3728.4,-177.38 3734.93,-185.73 3738.71,-179.83"/>
</g>
<!-- TMBIM4 -->
<g id="node72" class="node">
<title>TMBIM4</title>
<ellipse fill="none" stroke="black" cx="3818" cy="-162" rx="51.5" ry="18"/>
<text text-anchor="middle" x="3818" y="-158.3" font-family="Times,serif" font-size="14.00">TMBIM4</text>
</g>
<!-- POMP&#45;&gt;TMBIM4 -->
<g id="edge46" class="edge">
<title>POMP&#45;&gt;TMBIM4</title>
<path fill="none" stroke="black" d="M3815.7,-215.7C3816.1,-207.98 3816.5,-198.71 3816.8,-190.11"/>
<polygon fill="black" stroke="black" points="3820.3,-190.26 3817.3,-180.1 3813.31,-189.91 3820.3,-190.26"/>
</g>
<!-- HMGB1 -->
<g id="node73" class="node">
<title>HMGB1</title>
<ellipse fill="none" stroke="black" cx="3706" cy="-234" rx="48.19" ry="18"/>
<text text-anchor="middle" x="3706" y="-230.3" font-family="Times,serif" font-size="14.00">HMGB1</text>
</g>
<!-- HMGB1&#45;&gt;KRT18 -->
<g id="edge47" class="edge">
<title>HMGB1&#45;&gt;KRT18</title>
<path fill="none" stroke="black" d="M3706,-215.7C3706,-207.98 3706,-198.71 3706,-190.11"/>
<polygon fill="black" stroke="black" points="3709.5,-190.1 3706,-180.1 3702.5,-190.1 3709.5,-190.1"/>
</g>
<!-- PSMA6 -->
<g id="node74" class="node">
<title>PSMA6</title>
<ellipse fill="none" stroke="black" cx="3930" cy="-234" rx="45" ry="18"/>
<text text-anchor="middle" x="3930" y="-230.3" font-family="Times,serif" font-size="14.00">PSMA6</text>
</g>
<!-- ARPC3 -->
<g id="node75" class="node">
<title>ARPC3</title>
<ellipse fill="none" stroke="black" cx="3930" cy="-162" rx="43" ry="18"/>
<text text-anchor="middle" x="3930" y="-158.3" font-family="Times,serif" font-size="14.00">ARPC3</text>
</g>
<!-- PSMA6&#45;&gt;ARPC3 -->
<g id="edge48" class="edge">
<title>PSMA6&#45;&gt;ARPC3</title>
<path fill="none" stroke="black" d="M3930,-215.7C3930,-207.98 3930,-198.71 3930,-190.11"/>
<polygon fill="black" stroke="black" points="3933.5,-190.1 3930,-180.1 3926.5,-190.1 3933.5,-190.1"/>
</g>
<!-- ZFP36L1 -->
<g id="node76" class="node">
<title>ZFP36L1</title>
<ellipse fill="none" stroke="black" cx="4046" cy="-234" rx="53.5" ry="18"/>
<text text-anchor="middle" x="4046" y="-230.3" font-family="Times,serif" font-size="14.00">ZFP36L1</text>
</g>
<!-- VMP1 -->
<g id="node77" class="node">
<title>VMP1</title>
<ellipse fill="none" stroke="black" cx="4046" cy="-162" rx="38.5" ry="18"/>
<text text-anchor="middle" x="4046" y="-158.3" font-family="Times,serif" font-size="14.00">VMP1</text>
</g>
<!-- ZFP36L1&#45;&gt;VMP1 -->
<g id="edge49" class="edge">
<title>ZFP36L1&#45;&gt;VMP1</title>
<path fill="none" stroke="black" d="M4046,-215.7C4046,-207.98 4046,-198.71 4046,-190.11"/>
<polygon fill="black" stroke="black" points="4049.5,-190.1 4046,-180.1 4042.5,-190.1 4049.5,-190.1"/>
</g>
<!-- GADD45B -->
<g id="node78" class="node">
<title>GADD45B</title>
<ellipse fill="none" stroke="black" cx="4184" cy="-234" rx="58" ry="18"/>
<text text-anchor="middle" x="4184" y="-230.3" font-family="Times,serif" font-size="14.00">GADD45B</text>
</g>
<!-- FOS -->
<g id="node79" class="node">
<title>FOS</title>
<ellipse fill="none" stroke="black" cx="4264" cy="-162" rx="30.59" ry="18"/>
<text text-anchor="middle" x="4264" y="-158.3" font-family="Times,serif" font-size="14.00">FOS</text>
</g>
<!-- GADD45B&#45;&gt;FOS -->
<g id="edge50" class="edge">
<title>GADD45B&#45;&gt;FOS</title>
<path fill="none" stroke="black" d="M4202.6,-216.76C4213.7,-207.05 4227.9,-194.6 4239.9,-184.13"/>
<polygon fill="black" stroke="black" points="4242.52,-186.49 4247.7,-177.25 4237.89,-181.24 4242.52,-186.49"/>
</g>
<!-- DNAJB1 -->
<g id="node80" class="node">
<title>DNAJB1</title>
<ellipse fill="none" stroke="black" cx="4167" cy="-162" rx="48.19" ry="18"/>
<text text-anchor="middle" x="4167" y="-158.3" font-family="Times,serif" font-size="14.00">DNAJB1</text>
</g>
<!-- GADD45B&#45;&gt;DNAJB1 -->
<g id="edge51" class="edge">
<title>GADD45B&#45;&gt;DNAJB1</title>
<path fill="none" stroke="black" d="M4179.8,-215.7C4177.9,-207.9 4175.6,-198.51 4173.5,-189.83"/>
<polygon fill="black" stroke="black" points="4176.91,-189.03 4171.2,-180.1 4170.1,-190.64 4176.91,-189.03"/>
</g>
<!-- IER2 -->
<g id="node81" class="node">
<title>IER2</title>
<ellipse fill="none" stroke="black" cx="4297" cy="-90" rx="34" ry="18"/>
<text text-anchor="middle" x="4297" y="-86.3" font-family="Times,serif" font-size="14.00">IER2</text>
</g>
<!-- FOS&#45;&gt;IER2 -->
<g id="edge52" class="edge">
<title>FOS&#45;&gt;IER2</title>
<path fill="none" stroke="black" d="M4271.8,-144.41C4275.7,-136.25 4280.4,-126.22 4284.7,-117.07"/>
<polygon fill="black" stroke="black" points="4287.9,-118.5 4289,-107.96 4281.57,-115.51 4287.9,-118.5"/>
</g>
<!-- ARL6IP1 -->
<g id="node82" class="node">
<title>ARL6IP1</title>
<ellipse fill="none" stroke="black" cx="4167" cy="-90" rx="51.5" ry="18"/>
<text text-anchor="middle" x="4167" y="-86.3" font-family="Times,serif" font-size="14.00">ARL6IP1</text>
</g>
<!-- DNAJB1&#45;&gt;ARL6IP1 -->
<g id="edge53" class="edge">
<title>DNAJB1&#45;&gt;ARL6IP1</title>
<path fill="none" stroke="black" d="M4167,-143.7C4167,-135.98 4167,-126.71 4167,-118.11"/>
<polygon fill="black" stroke="black" points="4170.5,-118.1 4167,-108.1 4163.5,-118.1 4170.5,-118.1"/>
</g>
<!-- JUNB -->
<g id="node83" class="node">
<title>JUNB</title>
<ellipse fill="none" stroke="black" cx="4301" cy="-234" rx="36.5" ry="18"/>
<text text-anchor="middle" x="4301" y="-230.3" font-family="Times,serif" font-size="14.00">JUNB</text>
</g>
<!-- JUNB&#45;&gt;FOS -->
<g id="edge54" class="edge">
<title>JUNB&#45;&gt;FOS</title>
<path fill="none" stroke="black" d="M4292.2,-216.41C4287.8,-208.04 4282.3,-197.71 4277.4,-188.37"/>
<polygon fill="black" stroke="black" points="4280.47,-186.68 4272.7,-179.47 4274.28,-189.95 4280.47,-186.68"/>
</g>
<!-- JUNB&#45;&gt;IER2 -->
<g id="edge55" class="edge">
<title>JUNB&#45;&gt;IER2</title>
<path fill="none" stroke="black" d="M4302.6,-215.92C4304,-197.99 4305.6,-168.99 4304,-144 4303.4,-135.53 4302.4,-126.36 4301.3,-118.06"/>
<polygon fill="black" stroke="black" points="4304.76,-117.5 4299.8,-108.13 4297.84,-118.54 4304.76,-117.5"/>
</g>
<!-- HSP90AA1 -->
<g id="node84" class="node">
<title>HSP90AA1</title>
<ellipse fill="none" stroke="black" cx="4417" cy="-234" rx="61.99" ry="18"/>
<text text-anchor="middle" x="4417" y="-230.3" font-family="Times,serif" font-size="14.00">HSP90AA1</text>
</g>
<!-- UBB -->
<g id="node85" class="node">
<title>UBB</title>
<ellipse fill="none" stroke="black" cx="4417" cy="-162" rx="32.5" ry="18"/>
<text text-anchor="middle" x="4417" y="-158.3" font-family="Times,serif" font-size="14.00">UBB</text>
</g>
<!-- HSP90AA1&#45;&gt;UBB -->
<g id="edge56" class="edge">
<title>HSP90AA1&#45;&gt;UBB</title>
<path fill="none" stroke="black" d="M4417,-215.7C4417,-207.98 4417,-198.71 4417,-190.11"/>
<polygon fill="black" stroke="black" points="4420.5,-190.1 4417,-180.1 4413.5,-190.1 4420.5,-190.1"/>
</g>
<!-- RPS27L -->
<g id="node86" class="node">
<title>RPS27L</title>
<ellipse fill="none" stroke="black" cx="4545" cy="-234" rx="48.19" ry="18"/>
<text text-anchor="middle" x="4545" y="-230.3" font-family="Times,serif" font-size="14.00">RPS27L</text>
</g>
<!-- MT2A -->
<g id="node87" class="node">
<title>MT2A</title>
<ellipse fill="none" stroke="black" cx="4545" cy="-162" rx="38.5" ry="18"/>
<text text-anchor="middle" x="4545" y="-158.3" font-family="Times,serif" font-size="14.00">MT2A</text>
</g>
<!-- RPS27L&#45;&gt;MT2A -->
<g id="edge57" class="edge">
<title>RPS27L&#45;&gt;MT2A</title>
<path fill="none" stroke="black" d="M4545,-215.7C4545,-207.98 4545,-198.71 4545,-190.11"/>
<polygon fill="black" stroke="black" points="4548.5,-190.1 4545,-180.1 4541.5,-190.1 4548.5,-190.1"/>
</g>
<!-- CIB1 -->
<g id="node88" class="node">
<title>CIB1</title>
<ellipse fill="none" stroke="black" cx="4659" cy="-234" rx="34" ry="18"/>
<text text-anchor="middle" x="4659" y="-230.3" font-family="Times,serif" font-size="14.00">CIB1</text>
</g>
<!-- ANKRD11 -->
<g id="node89" class="node">
<title>ANKRD11</title>
<ellipse fill="none" stroke="black" cx="4659" cy="-162" rx="58" ry="18"/>
<text text-anchor="middle" x="4659" y="-158.3" font-family="Times,serif" font-size="14.00">ANKRD11</text>
</g>
<!-- CIB1&#45;&gt;ANKRD11 -->
<g id="edge58" class="edge">
<title>CIB1&#45;&gt;ANKRD11</title>
<path fill="none" stroke="black" d="M4659,-215.7C4659,-207.98 4659,-198.71 4659,-190.11"/>
<polygon fill="black" stroke="black" points="4662.5,-190.1 4659,-180.1 4655.5,-190.1 4662.5,-190.1"/>
</g>
<!-- RPS2 -->
<g id="node90" class="node">
<title>RPS2</title>
<ellipse fill="none" stroke="black" cx="4791" cy="-234" rx="36.5" ry="18"/>
<text text-anchor="middle" x="4791" y="-230.3" font-family="Times,serif" font-size="14.00">RPS2</text>
</g>
<!-- PRKAR1A -->
<g id="node91" class="node">
<title>PRKAR1A</title>
<ellipse fill="none" stroke="black" cx="4791" cy="-162" rx="56" ry="18"/>
<text text-anchor="middle" x="4791" y="-158.3" font-family="Times,serif" font-size="14.00">PRKAR1A</text>
</g>
<!-- RPS2&#45;&gt;PRKAR1A -->
<g id="edge59" class="edge">
<title>RPS2&#45;&gt;PRKAR1A</title>
<path fill="none" stroke="black" d="M4791,-215.7C4791,-207.98 4791,-198.71 4791,-190.11"/>
<polygon fill="black" stroke="black" points="4794.5,-190.1 4791,-180.1 4787.5,-190.1 4794.5,-190.1"/>
</g>
<!-- JUND -->
<g id="node92" class="node">
<title>JUND</title>
<ellipse fill="none" stroke="black" cx="4913" cy="-90" rx="37.09" ry="18"/>
<text text-anchor="middle" x="4913" y="-86.3" font-family="Times,serif" font-size="14.00">JUND</text>
</g>
<!-- FOSB -->
<g id="node93" class="node">
<title>FOSB</title>
<ellipse fill="none" stroke="black" cx="4865" cy="-18" rx="37.89" ry="18"/>
<text text-anchor="middle" x="4865" y="-14.3" font-family="Times,serif" font-size="14.00">FOSB</text>
</g>
<!-- JUND&#45;&gt;FOSB -->
<g id="edge60" class="edge">
<title>JUND&#45;&gt;FOSB</title>
<path fill="none" stroke="black" d="M4901.9,-72.77C4896,-64.23 4888.7,-53.58 4882.2,-44.02"/>
<polygon fill="black" stroke="black" points="4884.97,-41.87 4876.4,-35.63 4879.21,-45.85 4884.97,-41.87"/>
</g>
<!-- MAFF -->
<g id="node94" class="node">
<title>MAFF</title>
<ellipse fill="none" stroke="black" cx="4960" cy="-18" rx="39" ry="18"/>
<text text-anchor="middle" x="4960" y="-14.3" font-family="Times,serif" font-size="14.00">MAFF</text>
</g>
<!-- JUND&#45;&gt;MAFF -->
<g id="edge61" class="edge">
<title>JUND&#45;&gt;MAFF</title>
<path fill="none" stroke="black" d="M4923.9,-72.77C4929.6,-64.23 4936.8,-53.58 4943.2,-44.02"/>
<polygon fill="black" stroke="black" points="4946.16,-45.89 4948.8,-35.63 4940.34,-42.01 4946.16,-45.89"/>
</g>
<!-- MYADM -->
<g id="node95" class="node">
<title>MYADM</title>
<ellipse fill="none" stroke="black" cx="4913" cy="-162" rx="48.19" ry="18"/>
<text text-anchor="middle" x="4913" y="-158.3" font-family="Times,serif" font-size="14.00">MYADM</text>
</g>
<!-- MYADM&#45;&gt;JUND -->
<g id="edge62" class="edge">
<title>MYADM&#45;&gt;JUND</title>
<path fill="none" stroke="black" d="M4913,-143.7C4913,-135.98 4913,-126.71 4913,-118.11"/>
<polygon fill="black" stroke="black" points="4916.5,-118.1 4913,-108.1 4909.5,-118.1 4916.5,-118.1"/>
</g>
<!-- SERTAD1 -->
<g id="node96" class="node">
<title>SERTAD1</title>
<ellipse fill="none" stroke="black" cx="5094" cy="-234" rx="56" ry="18"/>
<text text-anchor="middle" x="5094" y="-230.3" font-family="Times,serif" font-size="14.00">SERTAD1</text>
</g>
<!-- UBE2S -->
<g id="node97" class="node">
<title>UBE2S</title>
<ellipse fill="none" stroke="black" cx="5023" cy="-162" rx="44.39" ry="18"/>
<text text-anchor="middle" x="5023" y="-158.3" font-family="Times,serif" font-size="14.00">UBE2S</text>
</g>
<!-- SERTAD1&#45;&gt;UBE2S -->
<g id="edge63" class="edge">
<title>SERTAD1&#45;&gt;UBE2S</title>
<path fill="none" stroke="black" d="M5077.5,-216.76C5068.4,-207.75 5056.9,-196.39 5046.8,-186.43"/>
<polygon fill="black" stroke="black" points="5048.99,-183.67 5039.4,-179.15 5044.08,-188.66 5048.99,-183.67"/>
</g>
<!-- ETS2 -->
<g id="node98" class="node">
<title>ETS2</title>
<ellipse fill="none" stroke="black" cx="5121" cy="-162" rx="36" ry="18"/>
<text text-anchor="middle" x="5121" y="-158.3" font-family="Times,serif" font-size="14.00">ETS2</text>
</g>
<!-- SERTAD1&#45;&gt;ETS2 -->
<g id="edge64" class="edge">
<title>SERTAD1&#45;&gt;ETS2</title>
<path fill="none" stroke="black" d="M5100.5,-216.05C5103.6,-208.06 5107.4,-198.33 5110.8,-189.4"/>
<polygon fill="black" stroke="black" points="5114.18,-190.38 5114.5,-179.79 5107.64,-187.86 5114.18,-190.38"/>
</g>
<!-- MYH9 -->
<g id="node99" class="node">
<title>MYH9</title>
<ellipse fill="none" stroke="black" cx="4913" cy="-234" rx="39.79" ry="18"/>
<text text-anchor="middle" x="4913" y="-230.3" font-family="Times,serif" font-size="14.00">MYH9</text>
</g>
<!-- MYH9&#45;&gt;MYADM -->
<g id="edge65" class="edge">
<title>MYH9&#45;&gt;MYADM</title>
<path fill="none" stroke="black" d="M4913,-215.7C4913,-207.98 4913,-198.71 4913,-190.11"/>
<polygon fill="black" stroke="black" points="4916.5,-190.1 4913,-180.1 4909.5,-190.1 4916.5,-190.1"/>
</g>
<!-- ATRX -->
<g id="node100" class="node">
<title>ATRX</title>
<ellipse fill="none" stroke="black" cx="5245" cy="-234" rx="36" ry="18"/>
<text text-anchor="middle" x="5245" y="-230.3" font-family="Times,serif" font-size="14.00">ATRX</text>
</g>
<!-- DDX3X -->
<g id="node101" class="node">
<title>DDX3X</title>
<ellipse fill="none" stroke="black" cx="5245" cy="-162" rx="44.39" ry="18"/>
<text text-anchor="middle" x="5245" y="-158.3" font-family="Times,serif" font-size="14.00">DDX3X</text>
</g>
<!-- ATRX&#45;&gt;DDX3X -->
<g id="edge66" class="edge">
<title>ATRX&#45;&gt;DDX3X</title>
<path fill="none" stroke="black" d="M5245,-215.7C5245,-207.98 5245,-198.71 5245,-190.11"/>
<polygon fill="black" stroke="black" points="5248.5,-190.1 5245,-180.1 5241.5,-190.1 5248.5,-190.1"/>
</g>
<!-- COX3 -->
<g id="node102" class="node">
<title>COX3</title>
<ellipse fill="none" stroke="black" cx="5344" cy="-234" rx="37.09" ry="18"/>
<text text-anchor="middle" x="5344" y="-230.3" font-family="Times,serif" font-size="14.00">COX3</text>
</g>
<!-- COX1 -->
<g id="node103" class="node">
<title>COX1</title>
<ellipse fill="none" stroke="black" cx="5344" cy="-162" rx="37.09" ry="18"/>
<text text-anchor="middle" x="5344" y="-158.3" font-family="Times,serif" font-size="14.00">COX1</text>
</g>
<!-- COX3&#45;&gt;COX1 -->
<g id="edge67" class="edge">
<title>COX3&#45;&gt;COX1</title>
<path fill="none" stroke="black" d="M5344,-215.7C5344,-207.98 5344,-198.71 5344,-190.11"/>
<polygon fill="black" stroke="black" points="5347.5,-190.1 5344,-180.1 5340.5,-190.1 5347.5,-190.1"/>
</g>
</g>
</svg>
