<?xml version="1.0" encoding="UTF-8" standalone="no"?>
<!DOCTYPE svg PUBLIC "-//W3C//DTD SVG 1.1//EN"
 "http://www.w3.org/Graphics/SVG/1.1/DTD/svg11.dtd">
<!-- Generated by graphviz version 2.43.0 (0)
 -->
<!-- Pages: 1 -->
<svg width="5216pt" height="188pt"
 viewBox="0.00 0.00 5216.00 188.00" xmlns="http://www.w3.org/2000/svg" xmlns:xlink="http://www.w3.org/1999/xlink">
<g id="graph0" class="graph" transform="scale(1 1) rotate(0) translate(4 184)">
<polygon fill="white" stroke="transparent" points="-4,4 -4,-184 5212,-184 5212,4 -4,4"/>
<!-- C1QA -->
<g id="node1" class="node">
<title>C1QA</title>
<ellipse fill="none" stroke="black" cx="50.05" cy="-162" rx="37.09" ry="18"/>
<text text-anchor="middle" x="50.05" y="-158.3" font-family="Times,serif" font-size="14.00">C1QA</text>
</g>
<!-- LAPTM5 -->
<g id="node2" class="node">
<title>LAPTM5</title>
<ellipse fill="none" stroke="black" cx="50.05" cy="-90" rx="50.09" ry="18"/>
<text text-anchor="middle" x="50.05" y="-86.3" font-family="Times,serif" font-size="14.00">LAPTM5</text>
</g>
<!-- C1QA&#45;&gt;LAPTM5 -->
<g id="edge1" class="edge">
<title>C1QA&#45;&gt;LAPTM5</title>
<path fill="none" stroke="black" d="M50.05,-143.7C50.05,-135.98 50.05,-126.71 50.05,-118.11"/>
<polygon fill="black" stroke="black" points="53.55,-118.1 50.05,-108.1 46.55,-118.1 53.55,-118.1"/>
</g>
<!-- S100A11 -->
<g id="node3" class="node">
<title>S100A11</title>
<ellipse fill="none" stroke="black" cx="169.05" cy="-162" rx="52.79" ry="18"/>
<text text-anchor="middle" x="169.05" y="-158.3" font-family="Times,serif" font-size="14.00">S100A11</text>
</g>
<!-- FCER1G -->
<g id="node4" class="node">
<title>FCER1G</title>
<ellipse fill="none" stroke="black" cx="169.05" cy="-90" rx="50.89" ry="18"/>
<text text-anchor="middle" x="169.05" y="-86.3" font-family="Times,serif" font-size="14.00">FCER1G</text>
</g>
<!-- S100A11&#45;&gt;FCER1G -->
<g id="edge2" class="edge">
<title>S100A11&#45;&gt;FCER1G</title>
<path fill="none" stroke="black" d="M169.05,-143.7C169.05,-135.98 169.05,-126.71 169.05,-118.11"/>
<polygon fill="black" stroke="black" points="172.55,-118.1 169.05,-108.1 165.55,-118.1 172.55,-118.1"/>
</g>
<!-- RGS5 -->
<g id="node5" class="node">
<title>RGS5</title>
<ellipse fill="none" stroke="black" cx="329.05" cy="-90" rx="37.09" ry="18"/>
<text text-anchor="middle" x="329.05" y="-86.3" font-family="Times,serif" font-size="14.00">RGS5</text>
</g>
<!-- CSRP1 -->
<g id="node6" class="node">
<title>CSRP1</title>
<ellipse fill="none" stroke="black" cx="232.05" cy="-18" rx="43" ry="18"/>
<text text-anchor="middle" x="232.05" y="-14.3" font-family="Times,serif" font-size="14.00">CSRP1</text>
</g>
<!-- RGS5&#45;&gt;CSRP1 -->
<g id="edge3" class="edge">
<title>RGS5&#45;&gt;CSRP1</title>
<path fill="none" stroke="black" d="M308.95,-74.5C295.09,-64.5 276.45,-51.05 261,-39.89"/>
<polygon fill="black" stroke="black" points="262.95,-36.98 252.79,-33.97 258.85,-42.66 262.95,-36.98"/>
</g>
<!-- LMOD1 -->
<g id="node7" class="node">
<title>LMOD1</title>
<ellipse fill="none" stroke="black" cx="430.05" cy="-18" rx="46.29" ry="18"/>
<text text-anchor="middle" x="430.05" y="-14.3" font-family="Times,serif" font-size="14.00">LMOD1</text>
</g>
<!-- RGS5&#45;&gt;LMOD1 -->
<g id="edge4" class="edge">
<title>RGS5&#45;&gt;LMOD1</title>
<path fill="none" stroke="black" d="M349.48,-74.83C363.88,-64.86 383.4,-51.33 399.62,-40.09"/>
<polygon fill="black" stroke="black" points="402.01,-42.69 408.24,-34.11 398.03,-36.93 402.01,-42.69"/>
</g>
<!-- TNS1 -->
<g id="node8" class="node">
<title>TNS1</title>
<ellipse fill="none" stroke="black" cx="329.05" cy="-18" rx="36.5" ry="18"/>
<text text-anchor="middle" x="329.05" y="-14.3" font-family="Times,serif" font-size="14.00">TNS1</text>
</g>
<!-- RGS5&#45;&gt;TNS1 -->
<g id="edge5" class="edge">
<title>RGS5&#45;&gt;TNS1</title>
<path fill="none" stroke="black" d="M329.05,-71.7C329.05,-63.98 329.05,-54.71 329.05,-46.11"/>
<polygon fill="black" stroke="black" points="332.55,-46.1 329.05,-36.1 325.55,-46.1 332.55,-46.1"/>
</g>
<!-- ACTG2 -->
<g id="node9" class="node">
<title>ACTG2</title>
<ellipse fill="none" stroke="black" cx="329.05" cy="-162" rx="43" ry="18"/>
<text text-anchor="middle" x="329.05" y="-158.3" font-family="Times,serif" font-size="14.00">ACTG2</text>
</g>
<!-- ACTG2&#45;&gt;RGS5 -->
<g id="edge6" class="edge">
<title>ACTG2&#45;&gt;RGS5</title>
<path fill="none" stroke="black" d="M329.05,-143.7C329.05,-135.98 329.05,-126.71 329.05,-118.11"/>
<polygon fill="black" stroke="black" points="332.55,-118.1 329.05,-108.1 325.55,-118.1 332.55,-118.1"/>
</g>
<!-- ACTG2&#45;&gt;CSRP1 -->
<g id="edge7" class="edge">
<title>ACTG2&#45;&gt;CSRP1</title>
<path fill="none" stroke="black" d="M313.68,-144.97C304.3,-134.79 292.36,-121.11 283.05,-108 268.56,-87.6 254.61,-62.78 244.97,-44.54"/>
<polygon fill="black" stroke="black" points="248.07,-42.92 240.35,-35.66 241.86,-46.15 248.07,-42.92"/>
</g>
<!-- ACTG2&#45;&gt;LMOD1 -->
<g id="edge8" class="edge">
<title>ACTG2&#45;&gt;LMOD1</title>
<path fill="none" stroke="black" d="M344.26,-144.86C353.58,-134.64 365.52,-120.96 375.05,-108 390.08,-87.56 405.08,-62.94 415.6,-44.78"/>
<polygon fill="black" stroke="black" points="418.74,-46.34 420.68,-35.92 412.67,-42.86 418.74,-46.34"/>
</g>
<!-- C1QB -->
<g id="node10" class="node">
<title>C1QB</title>
<ellipse fill="none" stroke="black" cx="478.05" cy="-162" rx="37.89" ry="18"/>
<text text-anchor="middle" x="478.05" y="-158.3" font-family="Times,serif" font-size="14.00">C1QB</text>
</g>
<!-- C1QC -->
<g id="node11" class="node">
<title>C1QC</title>
<ellipse fill="none" stroke="black" cx="478.05" cy="-90" rx="37.89" ry="18"/>
<text text-anchor="middle" x="478.05" y="-86.3" font-family="Times,serif" font-size="14.00">C1QC</text>
</g>
<!-- C1QB&#45;&gt;C1QC -->
<g id="edge9" class="edge">
<title>C1QB&#45;&gt;C1QC</title>
<path fill="none" stroke="black" d="M478.05,-143.7C478.05,-135.98 478.05,-126.71 478.05,-118.11"/>
<polygon fill="black" stroke="black" points="481.55,-118.1 478.05,-108.1 474.55,-118.1 481.55,-118.1"/>
</g>
<!-- DES -->
<g id="node12" class="node">
<title>DES</title>
<ellipse fill="none" stroke="black" cx="674.05" cy="-162" rx="31.4" ry="18"/>
<text text-anchor="middle" x="674.05" y="-158.3" font-family="Times,serif" font-size="14.00">DES</text>
</g>
<!-- MAP1B -->
<g id="node13" class="node">
<title>MAP1B</title>
<ellipse fill="none" stroke="black" cx="580.05" cy="-90" rx="45.5" ry="18"/>
<text text-anchor="middle" x="580.05" y="-86.3" font-family="Times,serif" font-size="14.00">MAP1B</text>
</g>
<!-- DES&#45;&gt;MAP1B -->
<g id="edge10" class="edge">
<title>DES&#45;&gt;MAP1B</title>
<path fill="none" stroke="black" d="M655.47,-147.17C642.11,-137.22 623.84,-123.61 608.62,-112.28"/>
<polygon fill="black" stroke="black" points="610.65,-109.43 600.54,-106.26 606.47,-115.04 610.65,-109.43"/>
</g>
<!-- PLN -->
<g id="node14" class="node">
<title>PLN</title>
<ellipse fill="none" stroke="black" cx="674.05" cy="-90" rx="30.59" ry="18"/>
<text text-anchor="middle" x="674.05" y="-86.3" font-family="Times,serif" font-size="14.00">PLN</text>
</g>
<!-- DES&#45;&gt;PLN -->
<g id="edge11" class="edge">
<title>DES&#45;&gt;PLN</title>
<path fill="none" stroke="black" d="M674.05,-143.7C674.05,-135.98 674.05,-126.71 674.05,-118.11"/>
<polygon fill="black" stroke="black" points="677.55,-118.1 674.05,-108.1 670.55,-118.1 677.55,-118.1"/>
</g>
<!-- RPL35A -->
<g id="node15" class="node">
<title>RPL35A</title>
<ellipse fill="none" stroke="black" cx="771.05" cy="-162" rx="48.19" ry="18"/>
<text text-anchor="middle" x="771.05" y="-158.3" font-family="Times,serif" font-size="14.00">RPL35A</text>
</g>
<!-- RPL34 -->
<g id="node16" class="node">
<title>RPL34</title>
<ellipse fill="none" stroke="black" cx="771.05" cy="-90" rx="41.69" ry="18"/>
<text text-anchor="middle" x="771.05" y="-86.3" font-family="Times,serif" font-size="14.00">RPL34</text>
</g>
<!-- RPL35A&#45;&gt;RPL34 -->
<g id="edge12" class="edge">
<title>RPL35A&#45;&gt;RPL34</title>
<path fill="none" stroke="black" d="M771.05,-143.7C771.05,-135.98 771.05,-126.71 771.05,-118.11"/>
<polygon fill="black" stroke="black" points="774.55,-118.1 771.05,-108.1 767.55,-118.1 774.55,-118.1"/>
</g>
<!-- SYNPO2 -->
<g id="node17" class="node">
<title>SYNPO2</title>
<ellipse fill="none" stroke="black" cx="980.05" cy="-162" rx="50.09" ry="18"/>
<text text-anchor="middle" x="980.05" y="-158.3" font-family="Times,serif" font-size="14.00">SYNPO2</text>
</g>
<!-- SORBS2 -->
<g id="node18" class="node">
<title>SORBS2</title>
<ellipse fill="none" stroke="black" cx="881.05" cy="-90" rx="50.09" ry="18"/>
<text text-anchor="middle" x="881.05" y="-86.3" font-family="Times,serif" font-size="14.00">SORBS2</text>
</g>
<!-- SYNPO2&#45;&gt;SORBS2 -->
<g id="edge13" class="edge">
<title>SYNPO2&#45;&gt;SORBS2</title>
<path fill="none" stroke="black" d="M958.07,-145.46C944.26,-135.7 926.26,-122.97 911.14,-112.28"/>
<polygon fill="black" stroke="black" points="912.8,-109.16 902.61,-106.25 908.75,-114.88 912.8,-109.16"/>
</g>
<!-- CPE -->
<g id="node19" class="node">
<title>CPE</title>
<ellipse fill="none" stroke="black" cx="980.05" cy="-90" rx="30.59" ry="18"/>
<text text-anchor="middle" x="980.05" y="-86.3" font-family="Times,serif" font-size="14.00">CPE</text>
</g>
<!-- SYNPO2&#45;&gt;CPE -->
<g id="edge14" class="edge">
<title>SYNPO2&#45;&gt;CPE</title>
<path fill="none" stroke="black" d="M980.05,-143.7C980.05,-135.98 980.05,-126.71 980.05,-118.11"/>
<polygon fill="black" stroke="black" points="983.55,-118.1 980.05,-108.1 976.55,-118.1 983.55,-118.1"/>
</g>
<!-- IGFBP7 -->
<g id="node20" class="node">
<title>IGFBP7</title>
<ellipse fill="none" stroke="black" cx="1075" cy="-90" rx="47" ry="18"/>
<text text-anchor="middle" x="1075" y="-86.3" font-family="Times,serif" font-size="14.00">IGFBP7</text>
</g>
<!-- SYNPO2&#45;&gt;IGFBP7 -->
<g id="edge15" class="edge">
<title>SYNPO2&#45;&gt;IGFBP7</title>
<path fill="none" stroke="black" d="M1001.1,-145.46C1014.4,-135.7 1031.7,-122.97 1046.2,-112.28"/>
<polygon fill="black" stroke="black" points="1048.37,-115.03 1054.3,-106.25 1044.19,-109.41 1048.37,-115.03"/>
</g>
<!-- EDIL3 -->
<g id="node21" class="node">
<title>EDIL3</title>
<ellipse fill="none" stroke="black" cx="980.05" cy="-18" rx="40.5" ry="18"/>
<text text-anchor="middle" x="980.05" y="-14.3" font-family="Times,serif" font-size="14.00">EDIL3</text>
</g>
<!-- CPE&#45;&gt;EDIL3 -->
<g id="edge16" class="edge">
<title>CPE&#45;&gt;EDIL3</title>
<path fill="none" stroke="black" d="M980.05,-71.7C980.05,-63.98 980.05,-54.71 980.05,-46.11"/>
<polygon fill="black" stroke="black" points="983.55,-46.1 980.05,-36.1 976.55,-46.1 983.55,-46.1"/>
</g>
<!-- SFRP2 -->
<g id="node22" class="node">
<title>SFRP2</title>
<ellipse fill="none" stroke="black" cx="1090" cy="-162" rx="42.49" ry="18"/>
<text text-anchor="middle" x="1090" y="-158.3" font-family="Times,serif" font-size="14.00">SFRP2</text>
</g>
<!-- EGR1 -->
<g id="node23" class="node">
<title>EGR1</title>
<ellipse fill="none" stroke="black" cx="1186" cy="-90" rx="37.89" ry="18"/>
<text text-anchor="middle" x="1186" y="-86.3" font-family="Times,serif" font-size="14.00">EGR1</text>
</g>
<!-- SFRP2&#45;&gt;EGR1 -->
<g id="edge17" class="edge">
<title>SFRP2&#45;&gt;EGR1</title>
<path fill="none" stroke="black" d="M1110.4,-146.15C1124.1,-136.16 1142.4,-122.83 1157.5,-111.78"/>
<polygon fill="black" stroke="black" points="1159.98,-114.3 1166,-105.58 1155.86,-108.65 1159.98,-114.3"/>
</g>
<!-- CYFIP2 -->
<g id="node24" class="node">
<title>CYFIP2</title>
<ellipse fill="none" stroke="black" cx="579.05" cy="-162" rx="45.5" ry="18"/>
<text text-anchor="middle" x="579.05" y="-158.3" font-family="Times,serif" font-size="14.00">CYFIP2</text>
</g>
<!-- CYFIP2&#45;&gt;MAP1B -->
<g id="edge18" class="edge">
<title>CYFIP2&#45;&gt;MAP1B</title>
<path fill="none" stroke="black" d="M579.29,-143.7C579.4,-135.98 579.54,-126.71 579.66,-118.11"/>
<polygon fill="black" stroke="black" points="583.16,-118.15 579.8,-108.1 576.16,-118.05 583.16,-118.15"/>
</g>
<!-- DUSP1 -->
<g id="node25" class="node">
<title>DUSP1</title>
<ellipse fill="none" stroke="black" cx="1194" cy="-162" rx="44.39" ry="18"/>
<text text-anchor="middle" x="1194" y="-158.3" font-family="Times,serif" font-size="14.00">DUSP1</text>
</g>
<!-- DUSP1&#45;&gt;EGR1 -->
<g id="edge19" class="edge">
<title>DUSP1&#45;&gt;EGR1</title>
<path fill="none" stroke="black" d="M1192.1,-143.7C1191.2,-135.98 1190.1,-126.71 1189.1,-118.11"/>
<polygon fill="black" stroke="black" points="1192.57,-117.66 1188,-108.1 1185.61,-118.42 1192.57,-117.66"/>
</g>
<!-- CD74 -->
<g id="node26" class="node">
<title>CD74</title>
<ellipse fill="none" stroke="black" cx="1527" cy="-162" rx="36.5" ry="18"/>
<text text-anchor="middle" x="1527" y="-158.3" font-family="Times,serif" font-size="14.00">CD74</text>
</g>
<!-- HLA&#45;DRB5 -->
<g id="node27" class="node">
<title>HLA&#45;DRB5</title>
<ellipse fill="none" stroke="black" cx="1317" cy="-90" rx="60.5" ry="18"/>
<text text-anchor="middle" x="1317" y="-86.3" font-family="Times,serif" font-size="14.00">HLA&#45;DRB5</text>
</g>
<!-- CD74&#45;&gt;HLA&#45;DRB5 -->
<g id="edge20" class="edge">
<title>CD74&#45;&gt;HLA&#45;DRB5</title>
<path fill="none" stroke="black" d="M1497.4,-151.12C1463.1,-139.7 1406.3,-120.74 1365.5,-107.16"/>
<polygon fill="black" stroke="black" points="1366.39,-103.77 1355.8,-103.92 1364.18,-110.41 1366.39,-103.77"/>
</g>
<!-- HLA&#45;DQB1 -->
<g id="node28" class="node">
<title>HLA&#45;DQB1</title>
<ellipse fill="none" stroke="black" cx="1457" cy="-90" rx="61.19" ry="18"/>
<text text-anchor="middle" x="1457" y="-86.3" font-family="Times,serif" font-size="14.00">HLA&#45;DQB1</text>
</g>
<!-- CD74&#45;&gt;HLA&#45;DQB1 -->
<g id="edge21" class="edge">
<title>CD74&#45;&gt;HLA&#45;DQB1</title>
<path fill="none" stroke="black" d="M1511.5,-145.46C1502.4,-136.39 1490.8,-124.75 1480.6,-114.57"/>
<polygon fill="black" stroke="black" points="1483.05,-112.07 1473.5,-107.47 1478.1,-117.02 1483.05,-112.07"/>
</g>
<!-- HLA&#45;DQA1 -->
<g id="node29" class="node">
<title>HLA&#45;DQA1</title>
<ellipse fill="none" stroke="black" cx="1597" cy="-90" rx="60.5" ry="18"/>
<text text-anchor="middle" x="1597" y="-86.3" font-family="Times,serif" font-size="14.00">HLA&#45;DQA1</text>
</g>
<!-- CD74&#45;&gt;HLA&#45;DQA1 -->
<g id="edge22" class="edge">
<title>CD74&#45;&gt;HLA&#45;DQA1</title>
<path fill="none" stroke="black" d="M1542.6,-145.46C1551.7,-136.39 1563.3,-124.75 1573.5,-114.57"/>
<polygon fill="black" stroke="black" points="1576,-117.02 1580.6,-107.47 1571.05,-112.07 1576,-117.02"/>
</g>
<!-- AIF1 -->
<g id="node30" class="node">
<title>AIF1</title>
<ellipse fill="none" stroke="black" cx="1708" cy="-90" rx="32.5" ry="18"/>
<text text-anchor="middle" x="1708" y="-86.3" font-family="Times,serif" font-size="14.00">AIF1</text>
</g>
<!-- CD74&#45;&gt;AIF1 -->
<g id="edge23" class="edge">
<title>CD74&#45;&gt;AIF1</title>
<path fill="none" stroke="black" d="M1555.1,-150.51C1583.2,-139.93 1627.7,-123.07 1666,-108 1668.4,-107.07 1670.9,-106.1 1673.3,-105.12"/>
<polygon fill="black" stroke="black" points="1674.81,-108.29 1682.8,-101.33 1672.21,-101.78 1674.81,-108.29"/>
</g>
<!-- HLA&#45;DRB1 -->
<g id="node31" class="node">
<title>HLA&#45;DRB1</title>
<ellipse fill="none" stroke="black" cx="1317" cy="-162" rx="60.5" ry="18"/>
<text text-anchor="middle" x="1317" y="-158.3" font-family="Times,serif" font-size="14.00">HLA&#45;DRB1</text>
</g>
<!-- HLA&#45;DRB1&#45;&gt;HLA&#45;DRB5 -->
<g id="edge24" class="edge">
<title>HLA&#45;DRB1&#45;&gt;HLA&#45;DRB5</title>
<path fill="none" stroke="black" d="M1317,-143.7C1317,-135.98 1317,-126.71 1317,-118.11"/>
<polygon fill="black" stroke="black" points="1320.5,-118.1 1317,-108.1 1313.5,-118.1 1320.5,-118.1"/>
</g>
<!-- HLA&#45;B -->
<g id="node32" class="node">
<title>HLA&#45;B</title>
<ellipse fill="none" stroke="black" cx="1799" cy="-162" rx="40.5" ry="18"/>
<text text-anchor="middle" x="1799" y="-158.3" font-family="Times,serif" font-size="14.00">HLA&#45;B</text>
</g>
<!-- HLA&#45;E -->
<g id="node33" class="node">
<title>HLA&#45;E</title>
<ellipse fill="none" stroke="black" cx="1799" cy="-90" rx="40.5" ry="18"/>
<text text-anchor="middle" x="1799" y="-86.3" font-family="Times,serif" font-size="14.00">HLA&#45;E</text>
</g>
<!-- HLA&#45;B&#45;&gt;HLA&#45;E -->
<g id="edge25" class="edge">
<title>HLA&#45;B&#45;&gt;HLA&#45;E</title>
<path fill="none" stroke="black" d="M1799,-143.7C1799,-135.98 1799,-126.71 1799,-118.11"/>
<polygon fill="black" stroke="black" points="1802.5,-118.1 1799,-108.1 1795.5,-118.1 1802.5,-118.1"/>
</g>
<!-- HLA&#45;C -->
<g id="node34" class="node">
<title>HLA&#45;C</title>
<ellipse fill="none" stroke="black" cx="1900" cy="-162" rx="40.5" ry="18"/>
<text text-anchor="middle" x="1900" y="-158.3" font-family="Times,serif" font-size="14.00">HLA&#45;C</text>
</g>
<!-- TAPBP -->
<g id="node35" class="node">
<title>TAPBP</title>
<ellipse fill="none" stroke="black" cx="1900" cy="-90" rx="42.49" ry="18"/>
<text text-anchor="middle" x="1900" y="-86.3" font-family="Times,serif" font-size="14.00">TAPBP</text>
</g>
<!-- HLA&#45;C&#45;&gt;TAPBP -->
<g id="edge26" class="edge">
<title>HLA&#45;C&#45;&gt;TAPBP</title>
<path fill="none" stroke="black" d="M1900,-143.7C1900,-135.98 1900,-126.71 1900,-118.11"/>
<polygon fill="black" stroke="black" points="1903.5,-118.1 1900,-108.1 1896.5,-118.1 1903.5,-118.1"/>
</g>
<!-- HLA&#45;DRA -->
<g id="node36" class="node">
<title>HLA&#45;DRA</title>
<ellipse fill="none" stroke="black" cx="2014" cy="-90" rx="54" ry="18"/>
<text text-anchor="middle" x="2014" y="-86.3" font-family="Times,serif" font-size="14.00">HLA&#45;DRA</text>
</g>
<!-- HLA&#45;DPA1 -->
<g id="node37" class="node">
<title>HLA&#45;DPA1</title>
<ellipse fill="none" stroke="black" cx="1878" cy="-18" rx="58.5" ry="18"/>
<text text-anchor="middle" x="1878" y="-14.3" font-family="Times,serif" font-size="14.00">HLA&#45;DPA1</text>
</g>
<!-- HLA&#45;DRA&#45;&gt;HLA&#45;DPA1 -->
<g id="edge27" class="edge">
<title>HLA&#45;DRA&#45;&gt;HLA&#45;DPA1</title>
<path fill="none" stroke="black" d="M1985.9,-74.5C1965.6,-64.05 1938,-49.85 1915.8,-38.43"/>
<polygon fill="black" stroke="black" points="1917.19,-35.21 1906.7,-33.73 1913.97,-41.43 1917.19,-35.21"/>
</g>
<!-- HLA&#45;DPB1 -->
<g id="node38" class="node">
<title>HLA&#45;DPB1</title>
<ellipse fill="none" stroke="black" cx="2014" cy="-18" rx="60" ry="18"/>
<text text-anchor="middle" x="2014" y="-14.3" font-family="Times,serif" font-size="14.00">HLA&#45;DPB1</text>
</g>
<!-- HLA&#45;DRA&#45;&gt;HLA&#45;DPB1 -->
<g id="edge28" class="edge">
<title>HLA&#45;DRA&#45;&gt;HLA&#45;DPB1</title>
<path fill="none" stroke="black" d="M2014,-71.7C2014,-63.98 2014,-54.71 2014,-46.11"/>
<polygon fill="black" stroke="black" points="2017.5,-46.1 2014,-36.1 2010.5,-46.1 2017.5,-46.1"/>
</g>
<!-- CTSB -->
<g id="node39" class="node">
<title>CTSB</title>
<ellipse fill="none" stroke="black" cx="2128" cy="-18" rx="36.5" ry="18"/>
<text text-anchor="middle" x="2128" y="-14.3" font-family="Times,serif" font-size="14.00">CTSB</text>
</g>
<!-- HLA&#45;DRA&#45;&gt;CTSB -->
<g id="edge29" class="edge">
<title>HLA&#45;DRA&#45;&gt;CTSB</title>
<path fill="none" stroke="black" d="M2038.8,-73.81C2056,-63.24 2079.1,-49.07 2097.5,-37.78"/>
<polygon fill="black" stroke="black" points="2099.41,-40.72 2106.1,-32.5 2095.75,-34.75 2099.41,-40.72"/>
</g>
<!-- FLNA -->
<g id="node40" class="node">
<title>FLNA</title>
<ellipse fill="none" stroke="black" cx="2137" cy="-162" rx="37.09" ry="18"/>
<text text-anchor="middle" x="2137" y="-158.3" font-family="Times,serif" font-size="14.00">FLNA</text>
</g>
<!-- FLNA&#45;&gt;HLA&#45;DRA -->
<g id="edge30" class="edge">
<title>FLNA&#45;&gt;HLA&#45;DRA</title>
<path fill="none" stroke="black" d="M2113.9,-147.83C2095.6,-137.41 2069.7,-122.7 2048.9,-110.85"/>
<polygon fill="black" stroke="black" points="2050.51,-107.74 2040.1,-105.8 2047.03,-113.81 2050.51,-107.74"/>
</g>
<!-- TMSB4X -->
<g id="node41" class="node">
<title>TMSB4X</title>
<ellipse fill="none" stroke="black" cx="2137" cy="-90" rx="51.5" ry="18"/>
<text text-anchor="middle" x="2137" y="-86.3" font-family="Times,serif" font-size="14.00">TMSB4X</text>
</g>
<!-- FLNA&#45;&gt;TMSB4X -->
<g id="edge31" class="edge">
<title>FLNA&#45;&gt;TMSB4X</title>
<path fill="none" stroke="black" d="M2137,-143.7C2137,-135.98 2137,-126.71 2137,-118.11"/>
<polygon fill="black" stroke="black" points="2140.5,-118.1 2137,-108.1 2133.5,-118.1 2140.5,-118.1"/>
</g>
<!-- RBPMS -->
<g id="node42" class="node">
<title>RBPMS</title>
<ellipse fill="none" stroke="black" cx="2252" cy="-90" rx="46.29" ry="18"/>
<text text-anchor="middle" x="2252" y="-86.3" font-family="Times,serif" font-size="14.00">RBPMS</text>
</g>
<!-- FLNA&#45;&gt;RBPMS -->
<g id="edge32" class="edge">
<title>FLNA&#45;&gt;RBPMS</title>
<path fill="none" stroke="black" d="M2159.2,-147.5C2176.2,-137.15 2200,-122.69 2219.2,-110.99"/>
<polygon fill="black" stroke="black" points="2221.26,-113.83 2228,-105.66 2217.63,-107.85 2221.26,-113.83"/>
</g>
<!-- COL1A2 -->
<g id="node43" class="node">
<title>COL1A2</title>
<ellipse fill="none" stroke="black" cx="2354" cy="-162" rx="48.99" ry="18"/>
<text text-anchor="middle" x="2354" y="-158.3" font-family="Times,serif" font-size="14.00">COL1A2</text>
</g>
<!-- CCN2 -->
<g id="node44" class="node">
<title>CCN2</title>
<ellipse fill="none" stroke="black" cx="2354" cy="-90" rx="38.5" ry="18"/>
<text text-anchor="middle" x="2354" y="-86.3" font-family="Times,serif" font-size="14.00">CCN2</text>
</g>
<!-- COL1A2&#45;&gt;CCN2 -->
<g id="edge33" class="edge">
<title>COL1A2&#45;&gt;CCN2</title>
<path fill="none" stroke="black" d="M2354,-143.7C2354,-135.98 2354,-126.71 2354,-118.11"/>
<polygon fill="black" stroke="black" points="2357.5,-118.1 2354,-108.1 2350.5,-118.1 2357.5,-118.1"/>
</g>
<!-- FTH1 -->
<g id="node45" class="node">
<title>FTH1</title>
<ellipse fill="none" stroke="black" cx="2457" cy="-162" rx="36.5" ry="18"/>
<text text-anchor="middle" x="2457" y="-158.3" font-family="Times,serif" font-size="14.00">FTH1</text>
</g>
<!-- AQP1 -->
<g id="node46" class="node">
<title>AQP1</title>
<ellipse fill="none" stroke="black" cx="2457" cy="-90" rx="36.5" ry="18"/>
<text text-anchor="middle" x="2457" y="-86.3" font-family="Times,serif" font-size="14.00">AQP1</text>
</g>
<!-- FTH1&#45;&gt;AQP1 -->
<g id="edge34" class="edge">
<title>FTH1&#45;&gt;AQP1</title>
<path fill="none" stroke="black" d="M2457,-143.7C2457,-135.98 2457,-126.71 2457,-118.11"/>
<polygon fill="black" stroke="black" points="2460.5,-118.1 2457,-108.1 2453.5,-118.1 2460.5,-118.1"/>
</g>
<!-- TPM2 -->
<g id="node47" class="node">
<title>TPM2</title>
<ellipse fill="none" stroke="black" cx="2568" cy="-162" rx="38.5" ry="18"/>
<text text-anchor="middle" x="2568" y="-158.3" font-family="Times,serif" font-size="14.00">TPM2</text>
</g>
<!-- ALDH1B1 -->
<g id="node48" class="node">
<title>ALDH1B1</title>
<ellipse fill="none" stroke="black" cx="2568" cy="-90" rx="56.59" ry="18"/>
<text text-anchor="middle" x="2568" y="-86.3" font-family="Times,serif" font-size="14.00">ALDH1B1</text>
</g>
<!-- TPM2&#45;&gt;ALDH1B1 -->
<g id="edge35" class="edge">
<title>TPM2&#45;&gt;ALDH1B1</title>
<path fill="none" stroke="black" d="M2568,-143.7C2568,-135.98 2568,-126.71 2568,-118.11"/>
<polygon fill="black" stroke="black" points="2571.5,-118.1 2568,-108.1 2564.5,-118.1 2571.5,-118.1"/>
</g>
<!-- ACTA2 -->
<g id="node49" class="node">
<title>ACTA2</title>
<ellipse fill="none" stroke="black" cx="2850" cy="-162" rx="41.69" ry="18"/>
<text text-anchor="middle" x="2850" y="-158.3" font-family="Times,serif" font-size="14.00">ACTA2</text>
</g>
<!-- MCAM -->
<g id="node50" class="node">
<title>MCAM</title>
<ellipse fill="none" stroke="black" cx="2685" cy="-90" rx="42.49" ry="18"/>
<text text-anchor="middle" x="2685" y="-86.3" font-family="Times,serif" font-size="14.00">MCAM</text>
</g>
<!-- ACTA2&#45;&gt;MCAM -->
<g id="edge36" class="edge">
<title>ACTA2&#45;&gt;MCAM</title>
<path fill="none" stroke="black" d="M2821.3,-148.81C2794.1,-137.28 2753.2,-119.92 2723.3,-107.23"/>
<polygon fill="black" stroke="black" points="2724.57,-103.97 2714,-103.29 2721.84,-110.41 2724.57,-103.97"/>
</g>
<!-- C11orf96 -->
<g id="node51" class="node">
<title>C11orf96</title>
<ellipse fill="none" stroke="black" cx="2799" cy="-90" rx="54" ry="18"/>
<text text-anchor="middle" x="2799" y="-86.3" font-family="Times,serif" font-size="14.00">C11orf96</text>
</g>
<!-- ACTA2&#45;&gt;C11orf96 -->
<g id="edge37" class="edge">
<title>ACTA2&#45;&gt;C11orf96</title>
<path fill="none" stroke="black" d="M2838,-144.41C2831.8,-135.99 2824.2,-125.58 2817.4,-116.2"/>
<polygon fill="black" stroke="black" points="2820.12,-113.98 2811.4,-107.96 2814.46,-118.1 2820.12,-113.98"/>
</g>
<!-- VCL -->
<g id="node52" class="node">
<title>VCL</title>
<ellipse fill="none" stroke="black" cx="2901" cy="-90" rx="30" ry="18"/>
<text text-anchor="middle" x="2901" y="-86.3" font-family="Times,serif" font-size="14.00">VCL</text>
</g>
<!-- ACTA2&#45;&gt;VCL -->
<g id="edge38" class="edge">
<title>ACTA2&#45;&gt;VCL</title>
<path fill="none" stroke="black" d="M2862.1,-144.41C2868.5,-135.66 2876.5,-124.75 2883.5,-115.08"/>
<polygon fill="black" stroke="black" points="2886.33,-117.13 2889.4,-106.99 2880.68,-113.01 2886.33,-117.13"/>
</g>
<!-- C12orf75 -->
<g id="node53" class="node">
<title>C12orf75</title>
<ellipse fill="none" stroke="black" cx="3003" cy="-90" rx="54" ry="18"/>
<text text-anchor="middle" x="3003" y="-86.3" font-family="Times,serif" font-size="14.00">C12orf75</text>
</g>
<!-- ACTA2&#45;&gt;C12orf75 -->
<g id="edge39" class="edge">
<title>ACTA2&#45;&gt;C12orf75</title>
<path fill="none" stroke="black" d="M2877.8,-148.32C2901.7,-137.36 2936.6,-121.39 2963.5,-109.09"/>
<polygon fill="black" stroke="black" points="2965.05,-112.23 2972.7,-104.9 2962.15,-105.86 2965.05,-112.23"/>
</g>
<!-- YBX3 -->
<g id="node54" class="node">
<title>YBX3</title>
<ellipse fill="none" stroke="black" cx="2756" cy="-18" rx="36" ry="18"/>
<text text-anchor="middle" x="2756" y="-14.3" font-family="Times,serif" font-size="14.00">YBX3</text>
</g>
<!-- C11orf96&#45;&gt;YBX3 -->
<g id="edge40" class="edge">
<title>C11orf96&#45;&gt;YBX3</title>
<path fill="none" stroke="black" d="M2788.6,-72.06C2783.4,-63.59 2777,-53.19 2771.3,-43.84"/>
<polygon fill="black" stroke="black" points="2774.29,-42.03 2766.1,-35.31 2768.31,-45.67 2774.29,-42.03"/>
</g>
<!-- A2M -->
<g id="node55" class="node">
<title>A2M</title>
<ellipse fill="none" stroke="black" cx="2842" cy="-18" rx="32.5" ry="18"/>
<text text-anchor="middle" x="2842" y="-14.3" font-family="Times,serif" font-size="14.00">A2M</text>
</g>
<!-- C11orf96&#45;&gt;A2M -->
<g id="edge41" class="edge">
<title>C11orf96&#45;&gt;A2M</title>
<path fill="none" stroke="black" d="M2809.5,-72.06C2814.7,-63.59 2821,-53.19 2826.8,-43.84"/>
<polygon fill="black" stroke="black" points="2829.79,-45.67 2832,-35.31 2823.81,-42.03 2829.79,-45.67"/>
</g>
<!-- DCN -->
<g id="node56" class="node">
<title>DCN</title>
<ellipse fill="none" stroke="black" cx="3109" cy="-162" rx="32.5" ry="18"/>
<text text-anchor="middle" x="3109" y="-158.3" font-family="Times,serif" font-size="14.00">DCN</text>
</g>
<!-- MGP -->
<g id="node57" class="node">
<title>MGP</title>
<ellipse fill="none" stroke="black" cx="3109" cy="-90" rx="34" ry="18"/>
<text text-anchor="middle" x="3109" y="-86.3" font-family="Times,serif" font-size="14.00">MGP</text>
</g>
<!-- DCN&#45;&gt;MGP -->
<g id="edge42" class="edge">
<title>DCN&#45;&gt;MGP</title>
<path fill="none" stroke="black" d="M3109,-143.7C3109,-135.98 3109,-126.71 3109,-118.11"/>
<polygon fill="black" stroke="black" points="3112.5,-118.1 3109,-108.1 3105.5,-118.1 3112.5,-118.1"/>
</g>
<!-- MFGE8 -->
<g id="node58" class="node">
<title>MFGE8</title>
<ellipse fill="none" stroke="black" cx="3206" cy="-162" rx="46.29" ry="18"/>
<text text-anchor="middle" x="3206" y="-158.3" font-family="Times,serif" font-size="14.00">MFGE8</text>
</g>
<!-- RPS29 -->
<g id="node59" class="node">
<title>RPS29</title>
<ellipse fill="none" stroke="black" cx="3206" cy="-90" rx="42.49" ry="18"/>
<text text-anchor="middle" x="3206" y="-86.3" font-family="Times,serif" font-size="14.00">RPS29</text>
</g>
<!-- MFGE8&#45;&gt;RPS29 -->
<g id="edge43" class="edge">
<title>MFGE8&#45;&gt;RPS29</title>
<path fill="none" stroke="black" d="M3206,-143.7C3206,-135.98 3206,-126.71 3206,-118.11"/>
<polygon fill="black" stroke="black" points="3209.5,-118.1 3206,-108.1 3202.5,-118.1 3209.5,-118.1"/>
</g>
<!-- RPLP1 -->
<g id="node60" class="node">
<title>RPLP1</title>
<ellipse fill="none" stroke="black" cx="3368" cy="-162" rx="42.49" ry="18"/>
<text text-anchor="middle" x="3368" y="-158.3" font-family="Times,serif" font-size="14.00">RPLP1</text>
</g>
<!-- HSP90AA1 -->
<g id="node61" class="node">
<title>HSP90AA1</title>
<ellipse fill="none" stroke="black" cx="3328" cy="-90" rx="61.99" ry="18"/>
<text text-anchor="middle" x="3328" y="-86.3" font-family="Times,serif" font-size="14.00">HSP90AA1</text>
</g>
<!-- RPLP1&#45;&gt;HSP90AA1 -->
<g id="edge44" class="edge">
<title>RPLP1&#45;&gt;HSP90AA1</title>
<path fill="none" stroke="black" d="M3358.6,-144.41C3353.9,-136.16 3348.1,-126.01 3342.8,-116.78"/>
<polygon fill="black" stroke="black" points="3345.74,-114.86 3337.7,-107.96 3339.68,-118.37 3345.74,-114.86"/>
</g>
<!-- CCL2 -->
<g id="node62" class="node">
<title>CCL2</title>
<ellipse fill="none" stroke="black" cx="3444" cy="-90" rx="36.5" ry="18"/>
<text text-anchor="middle" x="3444" y="-86.3" font-family="Times,serif" font-size="14.00">CCL2</text>
</g>
<!-- RPLP1&#45;&gt;CCL2 -->
<g id="edge45" class="edge">
<title>RPLP1&#45;&gt;CCL2</title>
<path fill="none" stroke="black" d="M3384.9,-145.46C3395.2,-135.97 3408.6,-123.68 3420,-113.18"/>
<polygon fill="black" stroke="black" points="3422.53,-115.61 3427.5,-106.25 3417.78,-110.47 3422.53,-115.61"/>
</g>
<!-- MYH11 -->
<g id="node63" class="node">
<title>MYH11</title>
<ellipse fill="none" stroke="black" cx="3656" cy="-90" rx="45.5" ry="18"/>
<text text-anchor="middle" x="3656" y="-86.3" font-family="Times,serif" font-size="14.00">MYH11</text>
</g>
<!-- NPC2 -->
<g id="node64" class="node">
<title>NPC2</title>
<ellipse fill="none" stroke="black" cx="3343" cy="-18" rx="37.89" ry="18"/>
<text text-anchor="middle" x="3343" y="-14.3" font-family="Times,serif" font-size="14.00">NPC2</text>
</g>
<!-- MYH11&#45;&gt;NPC2 -->
<g id="edge46" class="edge">
<title>MYH11&#45;&gt;NPC2</title>
<path fill="none" stroke="black" d="M3618.4,-79.74C3607.3,-77.12 3595.2,-74.35 3584,-72 3497.8,-53.87 3474,-59.36 3389,-36 3386.3,-35.24 3383.4,-34.38 3380.6,-33.47"/>
<polygon fill="black" stroke="black" points="3381.59,-30.11 3371,-30.2 3379.34,-36.74 3381.59,-30.11"/>
</g>
<!-- RNASE1 -->
<g id="node65" class="node">
<title>RNASE1</title>
<ellipse fill="none" stroke="black" cx="3449" cy="-18" rx="50.89" ry="18"/>
<text text-anchor="middle" x="3449" y="-14.3" font-family="Times,serif" font-size="14.00">RNASE1</text>
</g>
<!-- MYH11&#45;&gt;RNASE1 -->
<g id="edge47" class="edge">
<title>MYH11&#45;&gt;RNASE1</title>
<path fill="none" stroke="black" d="M3622.3,-77.6C3587.5,-65.83 3533,-47.39 3494.4,-34.34"/>
<polygon fill="black" stroke="black" points="3495.09,-30.88 3484.5,-30.98 3492.84,-37.51 3495.09,-30.88"/>
</g>
<!-- ACTN1 -->
<g id="node66" class="node">
<title>ACTN1</title>
<ellipse fill="none" stroke="black" cx="3561" cy="-18" rx="43.59" ry="18"/>
<text text-anchor="middle" x="3561" y="-14.3" font-family="Times,serif" font-size="14.00">ACTN1</text>
</g>
<!-- MYH11&#45;&gt;ACTN1 -->
<g id="edge48" class="edge">
<title>MYH11&#45;&gt;ACTN1</title>
<path fill="none" stroke="black" d="M3635.4,-73.81C3622.1,-64 3604.6,-51.08 3589.9,-40.25"/>
<polygon fill="black" stroke="black" points="3591.73,-37.26 3581.6,-34.16 3587.59,-42.9 3591.73,-37.26"/>
</g>
<!-- PPIB -->
<g id="node67" class="node">
<title>PPIB</title>
<ellipse fill="none" stroke="black" cx="3656" cy="-18" rx="34" ry="18"/>
<text text-anchor="middle" x="3656" y="-14.3" font-family="Times,serif" font-size="14.00">PPIB</text>
</g>
<!-- MYH11&#45;&gt;PPIB -->
<g id="edge49" class="edge">
<title>MYH11&#45;&gt;PPIB</title>
<path fill="none" stroke="black" d="M3656,-71.7C3656,-63.98 3656,-54.71 3656,-46.11"/>
<polygon fill="black" stroke="black" points="3659.5,-46.1 3656,-36.1 3652.5,-46.1 3659.5,-46.1"/>
</g>
<!-- TGFB1I1 -->
<g id="node68" class="node">
<title>TGFB1I1</title>
<ellipse fill="none" stroke="black" cx="3760" cy="-18" rx="52" ry="18"/>
<text text-anchor="middle" x="3760" y="-14.3" font-family="Times,serif" font-size="14.00">TGFB1I1</text>
</g>
<!-- MYH11&#45;&gt;TGFB1I1 -->
<g id="edge50" class="edge">
<title>MYH11&#45;&gt;TGFB1I1</title>
<path fill="none" stroke="black" d="M3678.1,-74.16C3692.8,-64.27 3712.3,-51.12 3728.6,-40.15"/>
<polygon fill="black" stroke="black" points="3730.95,-42.79 3737.3,-34.31 3727.05,-36.98 3730.95,-42.79"/>
</g>
<!-- AOC3 -->
<g id="node69" class="node">
<title>AOC3</title>
<ellipse fill="none" stroke="black" cx="3867" cy="-18" rx="37.09" ry="18"/>
<text text-anchor="middle" x="3867" y="-14.3" font-family="Times,serif" font-size="14.00">AOC3</text>
</g>
<!-- MYH11&#45;&gt;AOC3 -->
<g id="edge51" class="edge">
<title>MYH11&#45;&gt;AOC3</title>
<path fill="none" stroke="black" d="M3691,-78.27C3724.5,-67.86 3776.4,-51.41 3821,-36 3823.6,-35.12 3826.2,-34.2 3828.9,-33.25"/>
<polygon fill="black" stroke="black" points="3830.2,-36.51 3838.4,-29.8 3827.81,-29.93 3830.2,-36.51"/>
</g>
<!-- MFAP4 -->
<g id="node70" class="node">
<title>MFAP4</title>
<ellipse fill="none" stroke="black" cx="3966" cy="-18" rx="44.39" ry="18"/>
<text text-anchor="middle" x="3966" y="-14.3" font-family="Times,serif" font-size="14.00">MFAP4</text>
</g>
<!-- MYH11&#45;&gt;MFAP4 -->
<g id="edge52" class="edge">
<title>MYH11&#45;&gt;MFAP4</title>
<path fill="none" stroke="black" d="M3696.9,-81.98C3747.8,-72.89 3837.5,-55.85 3913,-36 3916.4,-35.11 3919.9,-34.14 3923.4,-33.12"/>
<polygon fill="black" stroke="black" points="3924.56,-36.43 3933.1,-30.16 3922.51,-29.73 3924.56,-36.43"/>
</g>
<!-- SERPINF1 -->
<g id="node71" class="node">
<title>SERPINF1</title>
<ellipse fill="none" stroke="black" cx="3932" cy="-162" rx="60.5" ry="18"/>
<text text-anchor="middle" x="3932" y="-158.3" font-family="Times,serif" font-size="14.00">SERPINF1</text>
</g>
<!-- MMP2 -->
<g id="node72" class="node">
<title>MMP2</title>
<ellipse fill="none" stroke="black" cx="3932" cy="-90" rx="41.69" ry="18"/>
<text text-anchor="middle" x="3932" y="-86.3" font-family="Times,serif" font-size="14.00">MMP2</text>
</g>
<!-- SERPINF1&#45;&gt;MMP2 -->
<g id="edge53" class="edge">
<title>SERPINF1&#45;&gt;MMP2</title>
<path fill="none" stroke="black" d="M3932,-143.7C3932,-135.98 3932,-126.71 3932,-118.11"/>
<polygon fill="black" stroke="black" points="3935.5,-118.1 3932,-108.1 3928.5,-118.1 3935.5,-118.1"/>
</g>
<!-- IGFBP4 -->
<g id="node73" class="node">
<title>IGFBP4</title>
<ellipse fill="none" stroke="black" cx="3520" cy="-162" rx="47" ry="18"/>
<text text-anchor="middle" x="3520" y="-158.3" font-family="Times,serif" font-size="14.00">IGFBP4</text>
</g>
<!-- IGFBP4&#45;&gt;CCL2 -->
<g id="edge54" class="edge">
<title>IGFBP4&#45;&gt;CCL2</title>
<path fill="none" stroke="black" d="M3502.8,-145.12C3492.5,-135.61 3479.2,-123.39 3467.9,-112.97"/>
<polygon fill="black" stroke="black" points="3470.14,-110.27 3460.4,-106.1 3465.41,-115.44 3470.14,-110.27"/>
</g>
<!-- MT2A -->
<g id="node74" class="node">
<title>MT2A</title>
<ellipse fill="none" stroke="black" cx="3537" cy="-90" rx="38.5" ry="18"/>
<text text-anchor="middle" x="3537" y="-86.3" font-family="Times,serif" font-size="14.00">MT2A</text>
</g>
<!-- IGFBP4&#45;&gt;MT2A -->
<g id="edge55" class="edge">
<title>IGFBP4&#45;&gt;MT2A</title>
<path fill="none" stroke="black" d="M3524.2,-144.05C3526.1,-136.26 3528.3,-126.82 3530.5,-118.08"/>
<polygon fill="black" stroke="black" points="3533.92,-118.83 3532.9,-108.28 3527.12,-117.16 3533.92,-118.83"/>
</g>
<!-- COL1A1 -->
<g id="node75" class="node">
<title>COL1A1</title>
<ellipse fill="none" stroke="black" cx="3656" cy="-162" rx="48.99" ry="18"/>
<text text-anchor="middle" x="3656" y="-158.3" font-family="Times,serif" font-size="14.00">COL1A1</text>
</g>
<!-- COL1A1&#45;&gt;MYH11 -->
<g id="edge56" class="edge">
<title>COL1A1&#45;&gt;MYH11</title>
<path fill="none" stroke="black" d="M3656,-143.7C3656,-135.98 3656,-126.71 3656,-118.11"/>
<polygon fill="black" stroke="black" points="3659.5,-118.1 3656,-108.1 3652.5,-118.1 3659.5,-118.1"/>
</g>
<!-- FTL -->
<g id="node76" class="node">
<title>FTL</title>
<ellipse fill="none" stroke="black" cx="4222" cy="-90" rx="28.7" ry="18"/>
<text text-anchor="middle" x="4222" y="-86.3" font-family="Times,serif" font-size="14.00">FTL</text>
</g>
<!-- DSTN -->
<g id="node77" class="node">
<title>DSTN</title>
<ellipse fill="none" stroke="black" cx="4373" cy="-18" rx="38.5" ry="18"/>
<text text-anchor="middle" x="4373" y="-14.3" font-family="Times,serif" font-size="14.00">DSTN</text>
</g>
<!-- FTL&#45;&gt;DSTN -->
<g id="edge57" class="edge">
<title>FTL&#45;&gt;DSTN</title>
<path fill="none" stroke="black" d="M4244.3,-78.67C4268.8,-67.33 4308.4,-48.95 4337.3,-35.58"/>
<polygon fill="black" stroke="black" points="4339.01,-38.65 4346.6,-31.26 4336.06,-32.3 4339.01,-38.65"/>
</g>
<!-- CST3 -->
<g id="node78" class="node">
<title>CST3</title>
<ellipse fill="none" stroke="black" cx="4064" cy="-18" rx="36" ry="18"/>
<text text-anchor="middle" x="4064" y="-14.3" font-family="Times,serif" font-size="14.00">CST3</text>
</g>
<!-- FTL&#45;&gt;CST3 -->
<g id="edge58" class="edge">
<title>FTL&#45;&gt;CST3</title>
<path fill="none" stroke="black" d="M4199.4,-78.97C4173.3,-67.41 4130.1,-48.25 4099.5,-34.71"/>
<polygon fill="black" stroke="black" points="4100.66,-31.39 4090.1,-30.52 4097.81,-37.79 4100.66,-31.39"/>
</g>
<!-- TYROBP -->
<g id="node79" class="node">
<title>TYROBP</title>
<ellipse fill="none" stroke="black" cx="4168" cy="-18" rx="50.09" ry="18"/>
<text text-anchor="middle" x="4168" y="-14.3" font-family="Times,serif" font-size="14.00">TYROBP</text>
</g>
<!-- FTL&#45;&gt;TYROBP -->
<g id="edge59" class="edge">
<title>FTL&#45;&gt;TYROBP</title>
<path fill="none" stroke="black" d="M4210.1,-73.47C4203.3,-64.65 4194.6,-53.43 4186.9,-43.46"/>
<polygon fill="black" stroke="black" points="4189.59,-41.23 4180.7,-35.47 4184.06,-45.51 4189.59,-41.23"/>
</g>
<!-- ITGB2 -->
<g id="node80" class="node">
<title>ITGB2</title>
<ellipse fill="none" stroke="black" cx="4276" cy="-18" rx="40.5" ry="18"/>
<text text-anchor="middle" x="4276" y="-14.3" font-family="Times,serif" font-size="14.00">ITGB2</text>
</g>
<!-- FTL&#45;&gt;ITGB2 -->
<g id="edge60" class="edge">
<title>FTL&#45;&gt;ITGB2</title>
<path fill="none" stroke="black" d="M4234,-73.47C4240.8,-64.65 4249.5,-53.43 4257.2,-43.46"/>
<polygon fill="black" stroke="black" points="4260.02,-45.54 4263.3,-35.47 4254.45,-41.29 4260.02,-45.54"/>
</g>
<!-- CNN1 -->
<g id="node81" class="node">
<title>CNN1</title>
<ellipse fill="none" stroke="black" cx="4476" cy="-90" rx="39" ry="18"/>
<text text-anchor="middle" x="4476" y="-86.3" font-family="Times,serif" font-size="14.00">CNN1</text>
</g>
<!-- CNN1&#45;&gt;DSTN -->
<g id="edge61" class="edge">
<title>CNN1&#45;&gt;DSTN</title>
<path fill="none" stroke="black" d="M4454.7,-74.5C4439.6,-64.2 4419,-50.24 4402.3,-38.9"/>
<polygon fill="black" stroke="black" points="4404.23,-35.99 4394,-33.25 4400.29,-41.77 4404.23,-35.99"/>
</g>
<!-- TGM2 -->
<g id="node82" class="node">
<title>TGM2</title>
<ellipse fill="none" stroke="black" cx="4468" cy="-18" rx="39" ry="18"/>
<text text-anchor="middle" x="4468" y="-14.3" font-family="Times,serif" font-size="14.00">TGM2</text>
</g>
<!-- CNN1&#45;&gt;TGM2 -->
<g id="edge62" class="edge">
<title>CNN1&#45;&gt;TGM2</title>
<path fill="none" stroke="black" d="M4474.1,-71.7C4473.2,-63.98 4472.1,-54.71 4471.1,-46.11"/>
<polygon fill="black" stroke="black" points="4474.57,-45.66 4470,-36.1 4467.61,-46.43 4474.57,-45.66"/>
</g>
<!-- RPL28 -->
<g id="node83" class="node">
<title>RPL28</title>
<ellipse fill="none" stroke="black" cx="4567" cy="-18" rx="41.69" ry="18"/>
<text text-anchor="middle" x="4567" y="-14.3" font-family="Times,serif" font-size="14.00">RPL28</text>
</g>
<!-- CNN1&#45;&gt;RPL28 -->
<g id="edge63" class="edge">
<title>CNN1&#45;&gt;RPL28</title>
<path fill="none" stroke="black" d="M4495.3,-74.16C4508.2,-64.29 4525.2,-51.19 4539.4,-40.23"/>
<polygon fill="black" stroke="black" points="4541.66,-42.91 4547.5,-34.06 4537.42,-37.34 4541.66,-42.91"/>
</g>
<!-- APOE -->
<g id="node84" class="node">
<title>APOE</title>
<ellipse fill="none" stroke="black" cx="4559" cy="-162" rx="37.89" ry="18"/>
<text text-anchor="middle" x="4559" y="-158.3" font-family="Times,serif" font-size="14.00">APOE</text>
</g>
<!-- APOE&#45;&gt;CNN1 -->
<g id="edge64" class="edge">
<title>APOE&#45;&gt;CNN1</title>
<path fill="none" stroke="black" d="M4541,-145.81C4529.6,-136.18 4514.7,-123.56 4502,-112.86"/>
<polygon fill="black" stroke="black" points="4503.91,-109.9 4494,-106.16 4499.42,-115.26 4503.91,-109.9"/>
</g>
<!-- APOE&#45;&gt;RPL28 -->
<g id="edge65" class="edge">
<title>APOE&#45;&gt;RPL28</title>
<path fill="none" stroke="black" d="M4560,-143.87C4561.4,-119.67 4563.9,-75.21 4565.5,-46.39"/>
<polygon fill="black" stroke="black" points="4569.01,-46.38 4566.1,-36.19 4562.02,-45.97 4569.01,-46.38"/>
</g>
<!-- PLD3 -->
<g id="node85" class="node">
<title>PLD3</title>
<ellipse fill="none" stroke="black" cx="4623" cy="-90" rx="36.5" ry="18"/>
<text text-anchor="middle" x="4623" y="-86.3" font-family="Times,serif" font-size="14.00">PLD3</text>
</g>
<!-- APOE&#45;&gt;PLD3 -->
<g id="edge66" class="edge">
<title>APOE&#45;&gt;PLD3</title>
<path fill="none" stroke="black" d="M4573.6,-145.12C4581.9,-135.99 4592.5,-124.36 4601.8,-114.22"/>
<polygon fill="black" stroke="black" points="4604.41,-116.55 4608.6,-106.82 4599.26,-111.82 4604.41,-116.55"/>
</g>
<!-- PPP1R14A -->
<g id="node86" class="node">
<title>PPP1R14A</title>
<ellipse fill="none" stroke="black" cx="4771" cy="-162" rx="60.5" ry="18"/>
<text text-anchor="middle" x="4771" y="-158.3" font-family="Times,serif" font-size="14.00">PPP1R14A</text>
</g>
<!-- SMTN -->
<g id="node87" class="node">
<title>SMTN</title>
<ellipse fill="none" stroke="black" cx="4718" cy="-90" rx="40.5" ry="18"/>
<text text-anchor="middle" x="4718" y="-86.3" font-family="Times,serif" font-size="14.00">SMTN</text>
</g>
<!-- PPP1R14A&#45;&gt;SMTN -->
<g id="edge67" class="edge">
<title>PPP1R14A&#45;&gt;SMTN</title>
<path fill="none" stroke="black" d="M4758.2,-144.05C4751.7,-135.5 4743.8,-124.97 4736.6,-115.56"/>
<polygon fill="black" stroke="black" points="4739.21,-113.2 4730.4,-107.31 4733.61,-117.41 4739.21,-113.2"/>
</g>
<!-- COL6A2 -->
<g id="node88" class="node">
<title>COL6A2</title>
<ellipse fill="none" stroke="black" cx="4825" cy="-90" rx="48.99" ry="18"/>
<text text-anchor="middle" x="4825" y="-86.3" font-family="Times,serif" font-size="14.00">COL6A2</text>
</g>
<!-- PPP1R14A&#45;&gt;COL6A2 -->
<g id="edge68" class="edge">
<title>PPP1R14A&#45;&gt;COL6A2</title>
<path fill="none" stroke="black" d="M4784.1,-144.05C4790.6,-135.63 4798.6,-125.28 4805.8,-115.97"/>
<polygon fill="black" stroke="black" points="4808.77,-117.85 4812.1,-107.79 4803.22,-113.58 4808.77,-117.85"/>
</g>
<!-- COX2 -->
<g id="node89" class="node">
<title>COX2</title>
<ellipse fill="none" stroke="black" cx="5040" cy="-162" rx="37.09" ry="18"/>
<text text-anchor="middle" x="5040" y="-158.3" font-family="Times,serif" font-size="14.00">COX2</text>
</g>
<!-- ND1 -->
<g id="node90" class="node">
<title>ND1</title>
<ellipse fill="none" stroke="black" cx="5146" cy="-90" rx="32" ry="18"/>
<text text-anchor="middle" x="5146" y="-86.3" font-family="Times,serif" font-size="14.00">ND1</text>
</g>
<!-- COX2&#45;&gt;ND1 -->
<g id="edge69" class="edge">
<title>COX2&#45;&gt;ND1</title>
<path fill="none" stroke="black" d="M5061.2,-147C5077.3,-136.4 5099.5,-121.72 5117.2,-110.05"/>
<polygon fill="black" stroke="black" points="5119.57,-112.68 5126,-104.26 5115.72,-106.83 5119.57,-112.68"/>
</g>
<!-- COX1 -->
<g id="node91" class="node">
<title>COX1</title>
<ellipse fill="none" stroke="black" cx="4929" cy="-90" rx="37.09" ry="18"/>
<text text-anchor="middle" x="4929" y="-86.3" font-family="Times,serif" font-size="14.00">COX1</text>
</g>
<!-- COX2&#45;&gt;COX1 -->
<g id="edge70" class="edge">
<title>COX2&#45;&gt;COX1</title>
<path fill="none" stroke="black" d="M5018.4,-147.34C5001.5,-136.69 4977.9,-121.78 4959.1,-109.97"/>
<polygon fill="black" stroke="black" points="4961.02,-107.04 4950.7,-104.63 4957.26,-112.95 4961.02,-107.04"/>
</g>
<!-- COX3 -->
<g id="node92" class="node">
<title>COX3</title>
<ellipse fill="none" stroke="black" cx="5021" cy="-90" rx="37.09" ry="18"/>
<text text-anchor="middle" x="5021" y="-86.3" font-family="Times,serif" font-size="14.00">COX3</text>
</g>
<!-- COX2&#45;&gt;COX3 -->
<g id="edge71" class="edge">
<title>COX2&#45;&gt;COX3</title>
<path fill="none" stroke="black" d="M5035.4,-144.05C5033.3,-136.26 5030.8,-126.82 5028.4,-118.08"/>
<polygon fill="black" stroke="black" points="5031.73,-116.99 5025.7,-108.28 5024.98,-118.85 5031.73,-116.99"/>
</g>
<!-- CYTB -->
<g id="node93" class="node">
<title>CYTB</title>
<ellipse fill="none" stroke="black" cx="5086" cy="-18" rx="36.5" ry="18"/>
<text text-anchor="middle" x="5086" y="-14.3" font-family="Times,serif" font-size="14.00">CYTB</text>
</g>
<!-- COX2&#45;&gt;CYTB -->
<g id="edge72" class="edge">
<title>COX2&#45;&gt;CYTB</title>
<path fill="none" stroke="black" d="M5050,-144.32C5055.7,-134.12 5062.6,-120.65 5067,-108 5074.2,-87.8 5079.1,-64.03 5082.1,-46.13"/>
<polygon fill="black" stroke="black" points="5085.58,-46.54 5083.8,-36.09 5078.68,-45.37 5085.58,-46.54"/>
</g>
<!-- COX3&#45;&gt;CYTB -->
<g id="edge73" class="edge">
<title>COX3&#45;&gt;CYTB</title>
<path fill="none" stroke="black" d="M5035.8,-73.12C5044.3,-63.99 5055.1,-52.35 5064.5,-42.22"/>
<polygon fill="black" stroke="black" points="5067.14,-44.52 5071.4,-34.82 5062.02,-39.75 5067.14,-44.52"/>
</g>
<!-- ND4 -->
<g id="node94" class="node">
<title>ND4</title>
<ellipse fill="none" stroke="black" cx="5176" cy="-162" rx="32" ry="18"/>
<text text-anchor="middle" x="5176" y="-158.3" font-family="Times,serif" font-size="14.00">ND4</text>
</g>
<!-- ND4&#45;&gt;ND1 -->
<g id="edge74" class="edge">
<title>ND4&#45;&gt;ND1</title>
<path fill="none" stroke="black" d="M5168.9,-144.41C5165.5,-136.34 5161.2,-126.43 5157.3,-117.35"/>
<polygon fill="black" stroke="black" points="5160.44,-115.79 5153.3,-107.96 5154,-118.53 5160.44,-115.79"/>
</g>
<!-- ND4&#45;&gt;CYTB -->
<g id="edge75" class="edge">
<title>ND4&#45;&gt;CYTB</title>
<path fill="none" stroke="black" d="M5184,-144.28C5191.7,-125.34 5200.5,-94.25 5187,-72 5174.3,-50.84 5149.9,-37.71 5128.3,-29.82"/>
<polygon fill="black" stroke="black" points="5129.29,-26.46 5118.7,-26.55 5127.04,-33.08 5129.29,-26.46"/>
</g>
</g>
</svg>
