<?xml version="1.0" encoding="UTF-8" standalone="no"?>
<!DOCTYPE svg PUBLIC "-//W3C//DTD SVG 1.1//EN"
 "http://www.w3.org/Graphics/SVG/1.1/DTD/svg11.dtd">
<!-- Generated by graphviz version 2.43.0 (0)
 -->
<!-- Pages: 1 -->
<svg width="481pt" height="116pt"
 viewBox="0.00 0.00 481.38 116.00" xmlns="http://www.w3.org/2000/svg" xmlns:xlink="http://www.w3.org/1999/xlink">
<g id="graph0" class="graph" transform="scale(1 1) rotate(0) translate(4 112)">
<polygon fill="white" stroke="transparent" points="-4,4 -4,-112 477.38,-112 477.38,4 -4,4"/>
<!-- BaseExcess -->
<g id="node1" class="node">
<title>BaseExcess</title>
<ellipse fill="none" stroke="black" cx="65.64" cy="-90" rx="65.79" ry="18"/>
<text text-anchor="middle" x="65.64" y="-86.3" font-family="Times,serif" font-size="14.00">BaseExcess</text>
</g>
<!-- HCO3 -->
<g id="node2" class="node">
<title>HCO3</title>
<ellipse fill="none" stroke="black" cx="65.64" cy="-18" rx="38.5" ry="18"/>
<text text-anchor="middle" x="65.64" y="-14.3" font-family="Times,serif" font-size="14.00">HCO3</text>
</g>
<!-- BaseExcess&#45;&gt;HCO3 -->
<g id="edge1" class="edge">
<title>BaseExcess&#45;&gt;HCO3</title>
<path fill="none" stroke="black" d="M65.64,-71.7C65.64,-63.98 65.64,-54.71 65.64,-46.11"/>
<polygon fill="black" stroke="black" points="69.14,-46.1 65.64,-36.1 62.14,-46.1 69.14,-46.1"/>
</g>
<!-- pH -->
<g id="node3" class="node">
<title>pH</title>
<ellipse fill="none" stroke="black" cx="176.64" cy="-90" rx="27" ry="18"/>
<text text-anchor="middle" x="176.64" y="-86.3" font-family="Times,serif" font-size="14.00">pH</text>
</g>
<!-- FiO2 -->
<g id="node4" class="node">
<title>FiO2</title>
<ellipse fill="none" stroke="black" cx="176.64" cy="-18" rx="33.29" ry="18"/>
<text text-anchor="middle" x="176.64" y="-14.3" font-family="Times,serif" font-size="14.00">FiO2</text>
</g>
<!-- pH&#45;&gt;FiO2 -->
<g id="edge2" class="edge">
<title>pH&#45;&gt;FiO2</title>
<path fill="none" stroke="black" d="M176.64,-71.7C176.64,-63.98 176.64,-54.71 176.64,-46.11"/>
<polygon fill="black" stroke="black" points="180.14,-46.1 176.64,-36.1 173.14,-46.1 180.14,-46.1"/>
</g>
<!-- Creatinine -->
<g id="node5" class="node">
<title>Creatinine</title>
<ellipse fill="none" stroke="black" cx="281.64" cy="-90" rx="60" ry="18"/>
<text text-anchor="middle" x="281.64" y="-86.3" font-family="Times,serif" font-size="14.00">Creatinine</text>
</g>
<!-- BUN -->
<g id="node6" class="node">
<title>BUN</title>
<ellipse fill="none" stroke="black" cx="281.64" cy="-18" rx="33.29" ry="18"/>
<text text-anchor="middle" x="281.64" y="-14.3" font-family="Times,serif" font-size="14.00">BUN</text>
</g>
<!-- Creatinine&#45;&gt;BUN -->
<g id="edge3" class="edge">
<title>Creatinine&#45;&gt;BUN</title>
<path fill="none" stroke="black" d="M281.64,-71.7C281.64,-63.98 281.64,-54.71 281.64,-46.11"/>
<polygon fill="black" stroke="black" points="285.14,-46.1 281.64,-36.1 278.14,-46.1 285.14,-46.1"/>
</g>
<!-- Platelets -->
<g id="node7" class="node">
<title>Platelets</title>
<ellipse fill="none" stroke="black" cx="411.64" cy="-90" rx="52" ry="18"/>
<text text-anchor="middle" x="411.64" y="-86.3" font-family="Times,serif" font-size="14.00">Platelets</text>
</g>
<!-- Fibrinogen -->
<g id="node8" class="node">
<title>Fibrinogen</title>
<ellipse fill="none" stroke="black" cx="411.64" cy="-18" rx="61.99" ry="18"/>
<text text-anchor="middle" x="411.64" y="-14.3" font-family="Times,serif" font-size="14.00">Fibrinogen</text>
</g>
<!-- Platelets&#45;&gt;Fibrinogen -->
<g id="edge4" class="edge">
<title>Platelets&#45;&gt;Fibrinogen</title>
<path fill="none" stroke="black" d="M411.64,-71.7C411.64,-63.98 411.64,-54.71 411.64,-46.11"/>
<polygon fill="black" stroke="black" points="415.14,-46.1 411.64,-36.1 408.14,-46.1 415.14,-46.1"/>
</g>
</g>
</svg>
