<?xml version="1.0" encoding="UTF-8" standalone="no"?>
<!DOCTYPE svg PUBLIC "-//W3C//DTD SVG 1.1//EN"
 "http://www.w3.org/Graphics/SVG/1.1/DTD/svg11.dtd">
<!-- Generated by graphviz version 2.43.0 (0)
 -->
<!-- Pages: 1 -->
<svg width="614pt" height="116pt"
 viewBox="0.00 0.00 614.50 116.00" xmlns="http://www.w3.org/2000/svg" xmlns:xlink="http://www.w3.org/1999/xlink">
<g id="graph0" class="graph" transform="scale(1 1) rotate(0) translate(4 112)">
<polygon fill="white" stroke="transparent" points="-4,4 -4,-112 610.5,-112 610.5,4 -4,4"/>
<!-- waist(cm) -->
<g id="node1" class="node">
<title>waist(cm)</title>
<ellipse fill="none" stroke="black" cx="132.5" cy="-90" rx="56" ry="18"/>
<text text-anchor="middle" x="132.5" y="-86.3" font-family="Times,serif" font-size="14.00">waist(cm)</text>
</g>
<!-- weight(kg) -->
<g id="node2" class="node">
<title>weight(kg)</title>
<ellipse fill="none" stroke="black" cx="60.5" cy="-18" rx="60.5" ry="18"/>
<text text-anchor="middle" x="60.5" y="-14.3" font-family="Times,serif" font-size="14.00">weight(kg)</text>
</g>
<!-- waist(cm)&#45;&gt;weight(kg) -->
<g id="edge1" class="edge">
<title>waist(cm)&#45;&gt;weight(kg)</title>
<path fill="none" stroke="black" d="M115.8,-72.77C106.66,-63.88 95.17,-52.71 85.03,-42.85"/>
<polygon fill="black" stroke="black" points="87.22,-40.09 77.61,-35.63 82.34,-45.11 87.22,-40.09"/>
</g>
<!-- triglyceride -->
<g id="node3" class="node">
<title>triglyceride</title>
<ellipse fill="none" stroke="black" cx="203.5" cy="-18" rx="65" ry="18"/>
<text text-anchor="middle" x="203.49" y="-14.3" font-family="Times,serif" font-size="14.00">triglyceride</text>
</g>
<!-- waist(cm)&#45;&gt;triglyceride -->
<g id="edge2" class="edge">
<title>waist(cm)&#45;&gt;triglyceride</title>
<path fill="none" stroke="black" d="M148.96,-72.77C157.97,-63.88 169.31,-52.71 179.31,-42.85"/>
<polygon fill="black" stroke="black" points="181.96,-45.15 186.62,-35.63 177.05,-40.16 181.96,-45.15"/>
</g>
<!-- eyesight(left) -->
<g id="node4" class="node">
<title>eyesight(left)</title>
<ellipse fill="none" stroke="black" cx="366.5" cy="-90" rx="73" ry="18"/>
<text text-anchor="middle" x="366.5" y="-86.3" font-family="Times,serif" font-size="14.00">eyesight(left)</text>
</g>
<!-- eyesight(right) -->
<g id="node5" class="node">
<title>eyesight(right)</title>
<ellipse fill="none" stroke="black" cx="366.5" cy="-18" rx="80" ry="18"/>
<text text-anchor="middle" x="366.5" y="-14.3" font-family="Times,serif" font-size="14.00">eyesight(right)</text>
</g>
<!-- eyesight(left)&#45;&gt;eyesight(right) -->
<g id="edge3" class="edge">
<title>eyesight(left)&#45;&gt;eyesight(right)</title>
<path fill="none" stroke="black" d="M366.5,-71.7C366.5,-63.98 366.5,-54.71 366.5,-46.11"/>
<polygon fill="black" stroke="black" points="370,-46.1 366.5,-36.1 363,-46.1 370,-46.1"/>
</g>
<!-- smoking -->
<g id="node6" class="node">
<title>smoking</title>
<ellipse fill="none" stroke="black" cx="535.5" cy="-90" rx="50.09" ry="18"/>
<text text-anchor="middle" x="535.5" y="-86.3" font-family="Times,serif" font-size="14.00">smoking</text>
</g>
<!-- dental caries -->
<g id="node7" class="node">
<title>dental caries</title>
<ellipse fill="none" stroke="black" cx="535.5" cy="-18" rx="71" ry="18"/>
<text text-anchor="middle" x="535.5" y="-14.3" font-family="Times,serif" font-size="14.00">dental caries</text>
</g>
<!-- smoking&#45;&gt;dental caries -->
<g id="edge4" class="edge">
<title>smoking&#45;&gt;dental caries</title>
<path fill="none" stroke="black" d="M535.5,-71.7C535.5,-63.98 535.5,-54.71 535.5,-46.11"/>
<polygon fill="black" stroke="black" points="539,-46.1 535.5,-36.1 532,-46.1 539,-46.1"/>
</g>
</g>
</svg>
